<?xml version="1.0" encoding="UTF-8" standalone="no"?>
<svg
   xmlns:dc="http://purl.org/dc/elements/1.1/"
   xmlns:cc="http://creativecommons.org/ns#"
   xmlns:rdf="http://www.w3.org/1999/02/22-rdf-syntax-ns#"
   xmlns:svg="http://www.w3.org/2000/svg"
   xmlns="http://www.w3.org/2000/svg"
   xmlns:sodipodi="http://sodipodi.sourceforge.net/DTD/sodipodi-0.dtd"
   xmlns:inkscape="http://www.inkscape.org/namespaces/inkscape"
   version="1.1"
   xml:space="preserve"
   width="512.03699"
   height="146.96899"
   viewBox="0 0 512.03698 146.969"><defs
     id="defs34"><clipPath
       clipPathUnits="userSpaceOnUse"
       id="clipPath46"><path
         d="M 0,103 H 286 V 0 H 0 Z"
         id="path44" /></clipPath></defs><g
     id="g38"
     inkscape:groupmode="layer"
     inkscape:label="alexander-mcqueen"
     transform="matrix(1.3333333,0,0,-1.3333333,0,137.33333)"><g
       id="g40"
       transform="matrix(1.5015644,0,0,1.5015644,-22.523766,-24.632971)"><g
         id="g42"
         clip-path="url(#clipPath46)"><g
           id="g48"
           transform="translate(26.0112,85)"><path
             d="m 0,0 -6.753,-16.883 c -1.028,-2.496 -2.203,-3.965 -3.671,-4.259 l -0.294,0.001 v -1.175 h 6.901 v 1.175 H -4.11 c -1.469,0 -2.203,0.587 -2.203,1.761 l 1.028,3.231 0.44,1.174 h 7.782 l 2.055,-5.138 c 0,-0.734 -0.734,-1.029 -2.202,-1.029 l -0.294,0.001 v -1.175 h 9.249 v 1.175 h -0.147 c -0.734,0 -1.468,0.293 -1.762,0.734 L 8.368,-17.47 1.028,0 Z m 2.79,-13.8 h -7.194 l 3.523,8.368 z m 25.692,12.332 c -1.321,0 -2.202,-0.294 -2.496,-0.588 -0.294,-0.733 -0.44,-1.614 -0.44,-3.376 V -17.47 c 0,-1.616 0.146,-2.643 0.44,-2.937 0.294,-0.44 1.175,-0.735 2.937,-0.735 l 1.174,0.001 c 2.056,0 3.524,0.587 4.405,1.761 0.733,0.735 1.321,2.203 1.762,3.964 l 1.174,0.001 -0.147,-6.901 H 18.205 v 1.175 h 0.734 c 1.174,0 1.909,0.293 2.202,0.734 0.147,0.588 0.441,1.761 0.441,3.523 v 11.452 c 0,1.763 -0.294,2.936 -0.441,3.376 -0.293,0.294 -1.321,0.588 -2.495,0.588 h -0.441 v 0.882 h 11.011 v -0.882 z m 29.804,-5.724 v -7.342 h -1.175 v 0.294 c 0,1.174 -0.294,1.907 -0.587,2.495 l -2.349,0.441 h -2.202 v -5.433 c 0,-1.908 0.147,-3.083 0.44,-3.67 0.294,-0.44 1.174,-0.735 2.643,-0.735 l 1.321,0.001 c 2.202,0 3.67,0.587 4.551,1.761 0.734,1.175 1.468,2.496 1.762,3.964 l 1.175,0.001 -0.441,-6.901 H 44.779 v 1.175 h 0.293 c 1.175,0 1.909,0.293 2.496,0.734 0.147,0.588 0.147,1.761 0.147,3.523 v 11.452 c 0,1.763 0,2.642 -0.147,3.23 -0.587,0.44 -1.321,0.734 -2.202,0.734 h -0.294 v 0.882 h 16.444 l 0.44,-5.287 h -1.027 c -0.148,1.469 -0.735,2.349 -1.175,2.936 -0.734,0.882 -2.203,1.469 -4.405,1.469 h -3.376 v -8.662 h 2.202 c 1.174,0 1.908,0.293 2.349,0.587 0.293,0.147 0.587,0.881 0.587,2.202 v 0.149 z M 96.457,-22.316 H 84.712 v 1.175 h 0.294 c 1.615,0 2.642,0.293 2.642,1.028 l -1.468,2.643 -3.67,4.404 -3.377,-3.817 -1.468,-2.79 c 0,-0.88 0.734,-1.469 1.909,-1.469 l 0.293,0.001 v -1.175 h -8.809 v 1.175 h 0.148 c 2.055,0.294 4.257,1.761 6.459,4.404 l 4.111,4.698 -5.579,6.607 -2.79,3.377 c -0.44,0.293 -1.174,0.587 -2.201,0.587 h -0.148 v 0.882 h 10.424 v -0.882 h -0.44 c -1.175,0 -1.762,-0.294 -1.762,-1.028 l 1.322,-1.908 3.669,-4.698 3.671,4.404 c 0.734,1.029 1.175,1.761 1.175,1.908 0,0.735 -0.734,1.322 -2.202,1.322 h -0.294 v 0.882 h 8.368 v -0.882 h -0.294 c -1.174,0 -2.201,-0.294 -2.936,-1.028 l -3.083,-3.229 -3.524,-4.111 5.433,-6.901 3.229,-3.67 2.643,-0.734 z m 27.602,1.175 c -0.734,0 -1.469,0.293 -1.615,0.734 l -1.469,2.937 -7.34,17.47 h -1.028 l -6.9,-16.883 -1.615,-3.23 c -0.588,-0.44 -1.321,-0.735 -2.056,-1.029 l -0.146,0.001 v -1.175 h 6.753 v 1.175 h -0.147 c -1.468,0 -2.202,0.587 -2.202,1.761 l 0.881,3.231 0.587,1.174 h 7.781 l 1.469,-3.23 0.44,-1.908 c 0,-0.734 -0.734,-1.029 -2.202,-1.029 l -0.146,0.001 v -1.175 h 9.248 v 1.175 z m -8.955,7.341 h -6.902 l 3.378,8.368 z m 39.053,12.332 c -1.176,-0.294 -2.203,-0.734 -2.645,-1.469 l -0.293,-2.054 v -17.765 h -0.881 l -15.269,19.087 v -13.507 c 0,-1.469 0,-2.204 0.295,-2.497 0.734,-0.88 1.761,-1.469 2.935,-1.469 l 0.442,0.001 v -1.175 h -8.223 v 1.175 h 0.147 c 1.468,0 2.496,0.587 2.937,1.468 l 0.293,2.497 v 11.451 c 0,2.056 -0.293,3.229 -1.027,3.669 l -1.909,0.588 h -0.294 v 0.882 h 6.607 l 12.773,-15.563 v 11.158 c 0,1.468 -0.295,2.495 -0.734,2.789 l -2.496,0.734 h -0.147 v 0.882 h 7.782 v -0.882 z m 25.986,-0.733 c -2.496,1.174 -5.873,1.907 -10.572,1.907 l -4.404,0.001 -3.083,-0.293 v -0.882 h 0.44 c 1.176,0 1.908,-0.294 2.496,-0.734 l 0.147,-3.523 v -11.158 l -0.147,-3.524 c -0.588,-0.44 -1.322,-0.735 -2.203,-0.735 l -0.733,0.001 v -1.175 h 8.809 l 7.34,0.735 c 4.553,1.468 6.754,4.844 6.754,9.983 0,4.406 -1.615,7.634 -4.844,9.397 m -3.672,-0.295 c 2.643,-1.467 3.965,-4.698 3.965,-9.249 0,-3.524 -0.734,-6.167 -2.496,-7.928 -1.174,-0.88 -3.231,-1.469 -5.873,-1.469 -1.174,0.001 -1.908,0.294 -2.203,0.735 -0.293,0.734 -0.44,2.055 -0.44,4.257 v 14.682 l 1.909,0.147 c 2.203,0 3.964,-0.441 5.138,-1.175 m 35.971,-12.919 -0.295,-6.901 h -18.791 v 1.175 h 0.439 c 1.323,0 2.055,0.293 2.204,0.734 0.293,0.588 0.585,1.761 0.585,3.523 v 11.452 c 0,1.763 -0.292,2.642 -0.585,3.23 -0.149,0.44 -0.881,0.734 -1.911,0.734 h -0.293 v 0.882 h 16.739 l 0.146,-5.287 h -0.883 c -0.293,1.175 -0.732,2.203 -1.32,2.936 -0.734,0.882 -2.35,1.469 -4.551,1.469 h -3.23 v -8.662 h 2.203 c 1.174,0 1.908,0.293 2.201,0.587 0.442,0.147 0.734,0.881 0.734,2.202 v 0.149 h 1.174 v -7.342 h -1.174 v 0.294 c 0,1.174 -0.292,1.907 -0.441,2.495 l -2.494,0.441 h -2.203 v -5.433 c 0,-1.908 0.293,-3.083 0.441,-3.67 0.293,-0.44 1.321,-0.735 2.789,-0.735 l 1.174,0.001 c 2.203,0 3.67,0.587 4.404,1.761 0.735,1.175 1.469,2.496 1.909,3.964 z m 31.271,-6.901 v 1.175 c -1.615,0 -3.671,1.468 -5.873,4.404 -1.91,2.937 -3.377,4.698 -4.552,5.432 3.818,0.735 5.873,2.496 5.873,5.432 0,1.91 -1.028,3.377 -2.936,4.405 C 234.758,-0.586 232.26,0 228.883,0 l -8.367,-0.586 v -0.882 h 0.293 c 1.176,0 2.203,-0.294 2.35,-0.588 l 0.588,-3.376 v -11.451 l -0.588,-3.524 c -0.147,-0.44 -0.881,-0.735 -2.203,-0.735 l -0.733,0.001 v -1.175 h 11.01 v 1.175 h -0.881 c -1.32,0 -2.055,0.293 -2.201,0.734 -0.293,0.588 -0.588,1.761 -0.588,3.523 v 4.845 h 0.295 c 1.174,0 1.906,-0.294 2.494,-0.44 l 3.084,-4.258 c 1.762,-2.936 3.229,-4.845 4.258,-5.579 z m -9.25,16.443 c 0,-2.936 -1.027,-4.404 -3.23,-4.698 l -3.67,-0.293 v 9.396 h 1.469 c 2.054,0 3.523,-0.294 4.256,-1.028 0.734,-0.734 1.175,-1.761 1.175,-3.377 M 20.848,-35.088 8.809,-61.662 H 7.635 l -12.48,26.574 v -17.619 c 0,-2.643 0.294,-4.404 1.028,-5.285 0.441,-1.467 1.615,-2.201 3.67,-2.201 H 0 v -1.469 h -11.011 v 1.469 h 0.293 c 1.762,0 2.937,0.732 3.671,2.201 0.44,0.881 0.734,2.935 0.734,5.578 v 14.389 c 0,2.79 -0.294,4.257 -0.734,4.992 -0.44,0.734 -1.468,0.881 -3.23,0.881 h -0.734 v 1.468 H -0.44 l 10.717,-23.931 10.864,23.931 h 10.424 v -1.468 h -0.88 c -1.762,0 -2.937,-0.441 -3.524,-1.175 -0.44,-0.734 -0.734,-2.202 -0.734,-4.698 V -54.32 c 0,-2.496 0.294,-4.26 1.027,-4.993 0.294,-0.734 1.175,-0.88 2.937,-0.88 h 1.174 v -1.469 H 16.15 v 1.469 h 0.734 c 1.762,0 2.789,0.146 3.229,0.88 0.441,0.735 0.735,2.495 0.735,4.991 z M 43.604,-46.1 c 0,-6.312 2.496,-11.011 7.634,-13.947 2.643,-1.615 5.579,-2.349 8.956,-2.349 l 1.762,0.146 -6.9,-3.816 c -1.615,-0.735 -2.349,-1.469 -2.349,-2.204 0,-0.732 0.44,-1.027 1.174,-1.027 l 1.909,1.027 c 1.321,1.176 2.789,1.911 4.257,1.911 2.203,0 4.845,-1.03 7.781,-3.231 l 3.23,-2.203 c 2.203,-1.174 4.111,-1.615 6.313,-1.615 5.432,0.002 8.369,2.644 9.103,7.781 h -1.468 c -0.735,-2.201 -2.496,-3.228 -5.139,-3.228 -2.055,0 -4.404,0.585 -7.341,1.761 -4.404,1.762 -8.074,2.496 -11.01,2.496 l -0.735,-0.295 5.579,3.231 c 3.671,1.174 6.313,3.082 8.369,5.873 2.202,2.643 3.083,5.871 3.083,9.543 0,4.551 -1.615,8.514 -4.845,11.744 -3.23,2.938 -7.047,4.405 -12.186,4.405 -5.138,0.001 -9.396,-1.468 -12.479,-4.405 -3.23,-2.936 -4.698,-6.9 -4.698,-11.598 m 16.884,14.242 c 2.496,0 4.698,-0.735 6.607,-2.203 2.642,-2.202 3.963,-6.166 3.963,-12.185 0,-3.965 -0.734,-7.195 -2.055,-9.543 l -1.615,-2.203 c -1.762,-1.762 -3.964,-2.789 -6.607,-2.789 -3.523,0 -5.872,1.32 -7.634,3.523 -1.908,2.938 -2.937,6.754 -2.937,11.451 0,3.965 0.735,7.047 2.203,9.543 1.762,2.938 4.404,4.405 8.075,4.406 m 33.326,-6.167 c 0,2.79 -0.293,4.257 -0.733,4.992 -0.587,0.734 -1.762,0.881 -3.524,0.881 h -0.44 v 1.468 h 14.975 v -1.468 h -0.588 c -1.614,0 -2.936,-0.147 -3.376,-0.881 -0.441,-0.734 -0.734,-2.203 -0.734,-4.992 v -10.424 c 0,-4.258 0.44,-7.194 1.174,-8.369 1.322,-2.202 3.671,-3.375 7.341,-3.375 2.055,0 3.67,0.439 5.432,1.466 1.763,0.883 2.643,2.204 3.377,3.819 0.294,1.027 0.587,3.228 0.587,6.459 v 10.719 c 0,1.907 -0.293,3.375 -1.028,4.109 -0.44,0.735 -1.761,1.322 -3.377,1.469 h -0.293 v 1.468 h 11.011 v -1.468 h -0.44 l -2.496,-0.881 c -1.174,-0.734 -1.762,-2.056 -1.762,-3.965 v -13.506 c 0,-4.111 -1.175,-7.047 -3.377,-8.957 -2.202,-2.055 -5.432,-2.935 -9.249,-2.935 -4.698,0 -8.369,1.468 -10.57,4.404 -1.762,1.91 -2.203,4.404 -1.91,7.34 z m 58.14,-2.202 h 1.468 V -50.65 h -1.468 v 0.146 c 0,1.762 -0.147,2.936 -0.881,3.524 -0.586,0.439 -1.762,0.734 -3.524,0.734 h -3.084 v -7.342 c 0,-2.935 0.147,-4.697 0.735,-5.432 0.441,-0.734 1.615,-1.173 3.818,-1.173 h 1.762 c 2.935,0 5.137,0.88 6.312,2.642 1.323,1.469 2.055,3.375 2.789,5.578 h 1.469 l -0.588,-9.689 h -26.574 v 1.469 h 0.734 c 1.616,0 2.643,0.146 3.084,0.88 0.586,0.735 0.733,2.495 0.733,4.991 l 0.002,16.297 c 0,2.496 -0.149,4.257 -0.735,4.992 -0.441,0.734 -1.468,0.881 -3.084,0.881 h -0.293 v 1.468 h 23.786 l 0.439,-7.781 h -1.469 c -0.439,1.762 -1.174,3.229 -1.908,4.404 -0.734,0.735 -1.469,1.174 -2.203,1.468 l -3.963,0.294 h -4.846 v -12.332 h 3.084 c 1.762,0 2.936,0.293 3.524,0.733 0.734,0.734 0.881,1.761 0.881,3.523 z m 41.841,6.166 -1.908,1.468 -4.109,0.294 h -4.992 v -12.332 h 3.228 c 1.764,0 2.643,0.293 3.377,0.733 0.588,0.734 0.734,1.761 0.734,3.523 v 0.148 h 1.762 V -50.65 h -1.762 v 0.146 c 0,1.762 -0.146,2.936 -0.734,3.524 -0.441,0.439 -1.615,0.734 -3.377,0.734 h -3.228 v -7.342 c 0,-2.935 0.293,-4.697 0.732,-5.432 0.588,-0.734 1.762,-1.173 3.965,-1.173 h 1.762 c 2.935,0 5.138,0.88 6.312,2.642 1.174,1.469 1.908,3.375 2.643,5.578 h 1.468 l -0.439,-9.689 h -26.721 v 1.469 h 0.735 c 1.761,0 2.789,0.146 3.228,0.88 0.442,0.735 0.735,2.495 0.735,4.991 v 16.297 c 0,2.496 -0.293,4.257 -0.735,4.992 -0.439,0.734 -1.469,0.881 -2.935,0.881 h -0.442 v 1.468 h 23.637 l 0.588,-7.781 h -1.469 c -0.586,1.762 -1.32,3.229 -2.055,4.404 m 46.247,-3.23 v -25.105 h -1.614 l -21.289,27.161 v -19.38 c 0,-1.908 0.147,-3.231 0.442,-3.67 0.732,-1.174 2.201,-1.908 4.109,-1.908 h 0.588 v -1.469 H 210.68 v 1.469 c 2.201,0.146 3.67,0.732 4.256,1.908 0.148,0.441 0.441,1.762 0.441,3.67 v 16.443 c 0,2.937 -0.441,4.551 -1.173,5.285 l -3.231,0.735 h -0.293 v 1.468 h 9.836 l 17.912,-22.462 v 16.148 c 0,1.91 -0.588,3.23 -1.322,3.965 -0.734,0.734 -1.908,0.881 -3.084,0.881 h -0.586 v 1.468 h 11.305 v -1.468 h -0.442 c -1.761,-0.147 -2.935,-0.735 -3.67,-1.909 -0.293,-0.733 -0.587,-1.762 -0.587,-3.23 m -178.82,-2.936 c -2.643,0 -3.964,-1.91 -3.964,-5.58 0,-4.109 1.468,-6.166 4.258,-6.166 1.908,0 3.083,1.028 3.817,2.936 l 1.027,-0.44 c -0.734,-2.496 -2.643,-3.669 -5.579,-3.669 -2.202,0 -3.964,0.732 -5.138,1.908 -1.322,1.322 -2.056,2.935 -2.056,4.992 0,2.201 0.734,3.816 2.203,5.139 1.468,1.468 3.23,2.201 5.432,2.201 1.174,0 2.495,-0.293 3.377,-1.028 0.734,-0.441 1.321,-1.173 1.321,-1.908 0,-0.734 -0.587,-1.322 -1.321,-1.322 -0.734,0 -1.469,0.588 -1.615,1.762 -0.294,0.734 -0.734,1.175 -1.762,1.175"
             id="path50" /></g></g></g></g></svg>