<?xml version="1.0" encoding="UTF-8"?>
<svg xmlns="http://www.w3.org/2000/svg" xmlns:xlink="http://www.w3.org/1999/xlink" version="1.1" width="1024px" height="576px" style="shape-rendering:geometricPrecision; text-rendering:geometricPrecision; image-rendering:optimizeQuality; fill-rule:evenodd; clip-rule:evenodd">
  <g>
    <path style="opacity:1" fill="#131313" d="M 613.5,100.5 C 615.288,100.215 616.955,100.548 618.5,101.5C 616.255,102.208 614.255,103.208 612.5,104.5C 591.245,108.884 569.911,112.884 548.5,116.5C 545.171,116.215 542.171,116.882 539.5,118.5C 538.833,118.5 538.167,118.5 537.5,118.5C 536.275,119.152 535.608,120.319 535.5,122C 535.547,124.256 536.547,125.756 538.5,126.5C 543.126,129.458 547.126,133.124 550.5,137.5C 550.738,139.404 551.738,140.738 553.5,141.5C 555.262,142.262 556.262,143.596 556.5,145.5C 556.427,147.027 557.094,148.027 558.5,148.5C 559.338,148.842 559.672,149.508 559.5,150.5C 559.427,152.027 560.094,153.027 561.5,153.5C 565.087,156.695 566.254,160.695 565,165.5C 558.091,172.038 549.924,176.038 540.5,177.5C 536.613,177.646 532.946,178.313 529.5,179.5C 528.828,180.267 527.995,180.934 527,181.5C 526.814,184.036 526.314,186.369 525.5,188.5C 524.419,191.627 523.753,194.96 523.5,198.5C 523.293,201.241 522.293,203.574 520.5,205.5C 518.443,209.802 517.443,214.469 517.5,219.5C 517.5,219.833 517.5,220.167 517.5,220.5C 515.5,220.5 513.5,220.5 511.5,220.5C 509.265,220.205 507.265,220.539 505.5,221.5C 502.941,221.198 500.607,221.532 498.5,222.5C 498.167,222.5 497.833,222.5 497.5,222.5C 496.209,222.263 495.209,222.596 494.5,223.5C 493.167,223.5 491.833,223.5 490.5,223.5C 489.351,223.209 488.684,222.376 488.5,221C 487.278,215.832 487.278,210.666 488.5,205.5C 490.077,196.737 489.743,188.07 487.5,179.5C 487.715,177.821 487.048,176.821 485.5,176.5C 484.4,175.395 483.733,174.062 483.5,172.5C 483.557,171.391 483.89,170.391 484.5,169.5C 486.042,168.699 487.708,168.366 489.5,168.5C 493.5,167.833 493.5,167.167 489.5,166.5C 489.5,163.833 489.5,161.167 489.5,158.5C 489.851,155.959 489.518,154.292 488.5,153.5C 487.732,154.263 487.232,155.263 487,156.5C 486.517,155.552 486.351,154.552 486.5,153.5C 486.5,152.833 486.5,152.167 486.5,151.5C 487.657,148.727 488.324,145.727 488.5,142.5C 488.975,140.216 489.975,138.216 491.5,136.5C 492.167,136.5 492.5,136.167 492.5,135.5C 493.167,135.5 493.5,135.167 493.5,134.5C 494.492,134.672 495.158,134.338 495.5,133.5C 501.354,132.305 506.02,133.972 509.5,138.5C 509.427,140.027 510.094,141.027 511.5,141.5C 512.369,143.717 512.702,146.05 512.5,148.5C 511.833,149.5 511.167,150.5 510.5,151.5C 509.523,154.287 509.19,157.287 509.5,160.5C 507.833,160.5 506.167,160.5 504.5,160.5C 504.517,165.015 506.183,165.682 509.5,162.5C 512.167,162.5 514.833,162.5 517.5,162.5C 519.32,164.461 521.32,164.794 523.5,163.5C 525.898,163.741 527.898,163.074 529.5,161.5C 531.042,160.699 532.708,160.366 534.5,160.5C 539.5,160.5 544.5,160.5 549.5,160.5C 549.715,158.821 549.048,157.821 547.5,157.5C 547.5,156.167 546.833,155.5 545.5,155.5C 543.975,153.784 542.975,151.784 542.5,149.5C 542.598,147.447 541.931,145.78 540.5,144.5C 540.539,141.911 539.539,139.911 537.5,138.5C 535.555,134.264 532.888,130.597 529.5,127.5C 529.5,127.167 529.5,126.833 529.5,126.5C 528.86,124.668 527.86,124.335 526.5,125.5C 526.855,126.522 527.522,127.189 528.5,127.5C 530.132,134.044 530.799,140.711 530.5,147.5C 530.47,156.679 526.803,158.679 519.5,153.5C 519.5,152.167 519.5,150.833 519.5,149.5C 520.16,148.036 520.493,146.369 520.5,144.5C 520.684,141.795 520.017,139.462 518.5,137.5C 518.034,135.799 518.034,134.299 518.5,133C 517.552,132.517 516.552,132.351 515.5,132.5C 514.833,132.167 514.167,131.833 513.5,131.5C 513.5,130.833 513.167,130.5 512.5,130.5C 512.027,129.094 511.027,128.427 509.5,128.5C 509.158,127.662 508.492,127.328 507.5,127.5C 507.5,127.167 507.5,126.833 507.5,126.5C 502.833,123.833 498.167,123.833 493.5,126.5C 493.5,126.833 493.5,127.167 493.5,127.5C 492.508,127.328 491.842,127.662 491.5,128.5C 489.596,128.738 488.262,129.738 487.5,131.5C 485.906,131.08 484.406,130.414 483,129.5C 479.239,130.619 475.406,131.286 471.5,131.5C 467.878,131.322 464.544,131.989 461.5,133.5C 451.384,135.989 441.051,137.989 430.5,139.5C 426.575,139.43 422.909,140.097 419.5,141.5C 414.128,142.009 408.795,142.842 403.5,144C 402.944,144.383 402.611,144.883 402.5,145.5C 401.22,146.931 399.553,147.598 397.5,147.5C 392.305,147.821 387.305,147.487 382.5,146.5C 385.491,146.834 387.824,145.834 389.5,143.5C 392.152,143.59 394.485,142.924 396.5,141.5C 402.114,141.927 407.447,141.26 412.5,139.5C 434.592,134.549 456.925,130.216 479.5,126.5C 480.5,126.5 481.5,126.5 482.5,126.5C 482.715,124.821 482.048,123.821 480.5,123.5C 481.075,121.589 482.075,119.922 483.5,118.5C 483.5,117.833 483.833,117.5 484.5,117.5C 486.027,117.573 487.027,116.906 487.5,115.5C 491.162,115.277 494.495,114.277 497.5,112.5C 501.468,111.234 505.468,111.234 509.5,112.5C 510.78,113.931 512.447,114.598 514.5,114.5C 516.757,114.962 518.757,115.962 520.5,117.5C 521.94,116.048 523.606,115.048 525.5,114.5C 528.279,114.279 530.946,114.612 533.5,115.5C 536.127,114.908 538.794,114.575 541.5,114.5C 544.187,114.664 546.854,114.497 549.5,114C 550.416,113.722 551.082,113.222 551.5,112.5C 560.04,110.326 568.707,108.659 577.5,107.5C 580.187,107.664 582.854,107.497 585.5,107C 586.416,106.722 587.082,106.222 587.5,105.5C 595.923,103.204 604.59,101.538 613.5,100.5 Z M 529.5,127.5 C 532.888,130.597 535.555,134.264 537.5,138.5C 537.992,140.819 538.992,142.819 540.5,144.5C 540.402,146.553 541.069,148.22 542.5,149.5C 542.975,151.784 543.975,153.784 545.5,155.5C 545.833,156.5 546.5,157.167 547.5,157.5C 547.611,158.117 547.944,158.617 548.5,159C 543.649,159.174 538.982,159.674 534.5,160.5C 532.708,160.366 531.042,160.699 529.5,161.5C 527.214,161.595 525.214,162.262 523.5,163.5C 521.5,163.167 519.5,162.833 517.5,162.5C 515.393,161.532 513.059,161.198 510.5,161.5C 510.5,158.167 510.5,154.833 510.5,151.5C 511.167,150.5 511.833,149.5 512.5,148.5C 512.263,149.791 512.596,150.791 513.5,151.5C 514.568,152.434 515.901,152.768 517.5,152.5C 517.842,153.338 518.508,153.672 519.5,153.5C 526.803,158.679 530.47,156.679 530.5,147.5C 531.887,140.883 531.554,134.216 529.5,127.5 Z M 491.5,128.5 C 490.738,130.262 489.404,131.262 487.5,131.5C 488.262,129.738 489.596,128.738 491.5,128.5 Z M 509.5,129.5 C 509.5,129.167 509.5,128.833 509.5,128.5C 511.027,128.427 512.027,129.094 512.5,130.5C 511.391,130.443 510.391,130.11 509.5,129.5 Z M 513.5,131.5 C 514.167,131.833 514.833,132.167 515.5,132.5C 516.11,133.391 516.443,134.391 516.5,135.5C 515.5,134.833 514.5,134.167 513.5,133.5C 513.5,132.833 513.5,132.167 513.5,131.5 Z M 495.5,133.5 C 498.64,132.359 501.973,132.192 505.5,133C 508.409,134.406 510.409,136.572 511.5,139.5C 510.833,139.167 510.167,138.833 509.5,138.5C 506.02,133.972 501.354,132.305 495.5,133.5 Z M 511.5,139.5 C 512.94,140.946 513.607,142.779 513.5,145C 513.486,146.385 513.152,147.551 512.5,148.5C 512.702,146.05 512.369,143.717 511.5,141.5C 511.5,140.833 511.5,140.167 511.5,139.5 Z M 490.5,151.5 C 490.97,150.307 491.97,149.64 493.5,149.5C 494.5,149.833 495.5,150.167 496.5,150.5C 494.604,151.466 492.604,151.799 490.5,151.5 Z"></path>
  </g>
  <g>
    <path style="opacity:0.153" fill="#999999" d="M 612.5,104.5 C 614.255,103.208 616.255,102.208 618.5,101.5C 616.955,100.548 615.288,100.215 613.5,100.5C 617.609,96.9218 619.609,97.9218 619.5,103.5C 617.139,103.674 614.806,104.007 612.5,104.5 Z"></path>
  </g>
  <g>
    <path style="opacity:1" fill="#4f4f4f" d="M 587.5,105.5 C 587.082,106.222 586.416,106.722 585.5,107C 582.854,107.497 580.187,107.664 577.5,107.5C 580.627,106.419 583.96,105.753 587.5,105.5 Z"></path>
  </g>
  <g>
    <path style="opacity:0.961" fill="#5b5b5b" d="M 497.5,112.5 C 494.495,114.277 491.162,115.277 487.5,115.5C 490.505,113.723 493.838,112.723 497.5,112.5 Z"></path>
  </g>
  <g>
    <path style="opacity:0.224" fill="#a0a0a0" d="M 509.5,112.5 C 511.553,112.402 513.22,113.069 514.5,114.5C 512.447,114.598 510.78,113.931 509.5,112.5 Z"></path>
  </g>
  <g>
    <path style="opacity:0.392" fill="#8a8a8a" d="M 525.5,114.5 C 526.622,113.844 527.955,113.511 529.5,113.5C 531.333,113.585 532.666,114.252 533.5,115.5C 530.946,114.612 528.279,114.279 525.5,114.5 Z"></path>
  </g>
  <g>
    <path style="opacity:1" fill="#565656" d="M 551.5,112.5 C 551.082,113.222 550.416,113.722 549.5,114C 546.854,114.497 544.187,114.664 541.5,114.5C 544.589,113.215 547.922,112.549 551.5,112.5 Z"></path>
  </g>
  <g>
    <path style="opacity:0.616" fill="#888888" d="M 487.5,115.5 C 487.027,116.906 486.027,117.573 484.5,117.5C 484.973,116.094 485.973,115.427 487.5,115.5 Z"></path>
  </g>
  <g>
    <path style="opacity:0.008" fill="#a7a7a7" d="M 548.5,116.5 C 545.727,117.657 542.727,118.324 539.5,118.5C 542.171,116.882 545.171,116.215 548.5,116.5 Z"></path>
  </g>
  <g>
    <path style="opacity:0.537" fill="#929292" d="M 483.5,118.5 C 482.075,119.922 481.075,121.589 480.5,123.5C 479.179,120.765 480.179,119.098 483.5,118.5 Z"></path>
  </g>
  <g>
    <path style="opacity:0.841" fill="#575757" d="M 507.5,126.5 C 506.167,126.5 504.833,126.5 503.5,126.5C 501.5,125.167 499.5,125.167 497.5,126.5C 496.167,126.5 494.833,126.5 493.5,126.5C 498.167,123.833 502.833,123.833 507.5,126.5 Z"></path>
  </g>
  <g>
    <path style="opacity:1" fill="#686868" d="M 537.5,118.5 C 537.077,119.265 536.743,120.098 536.5,121C 537.32,122.8 537.986,124.634 538.5,126.5C 536.547,125.756 535.547,124.256 535.5,122C 535.608,120.319 536.275,119.152 537.5,118.5 Z"></path>
  </g>
  <g>
    <path style="opacity:0.184" fill="#929292" d="M 480.5,123.5 C 482.048,123.821 482.715,124.821 482.5,126.5C 481.5,126.5 480.5,126.5 479.5,126.5C 479.918,125.778 480.584,125.278 481.5,125C 480.944,124.617 480.611,124.117 480.5,123.5 Z"></path>
  </g>
  <g>
    <path style="opacity:0.455" fill="#8f8f8f" d="M 529.5,126.5 C 528.833,126.5 528.5,126.833 528.5,127.5C 527.522,127.189 526.855,126.522 526.5,125.5C 527.86,124.335 528.86,124.668 529.5,126.5 Z"></path>
  </g>
  <g>
    <path style="opacity:1" fill="#303030" d="M 497.5,126.5 C 499.5,126.5 501.5,126.5 503.5,126.5C 504.568,127.434 505.901,127.768 507.5,127.5C 507.842,128.338 508.508,128.672 509.5,128.5C 509.5,128.833 509.5,129.167 509.5,129.5C 510.326,131.264 511.659,132.598 513.5,133.5C 514.5,134.167 515.5,134.833 516.5,135.5C 516.328,136.492 516.662,137.158 517.5,137.5C 517.5,138.167 517.5,138.833 517.5,139.5C 517.5,142.833 517.5,146.167 517.5,149.5C 516.533,150.806 515.199,151.473 513.5,151.5C 512.596,150.791 512.263,149.791 512.5,148.5C 513.152,147.551 513.486,146.385 513.5,145C 513.607,142.779 512.94,140.946 511.5,139.5C 510.409,136.572 508.409,134.406 505.5,133C 501.973,132.192 498.64,132.359 495.5,133.5C 494.508,133.328 493.842,133.662 493.5,134.5C 492.833,134.5 492.5,134.833 492.5,135.5C 491.833,135.5 491.5,135.833 491.5,136.5C 488.09,136.616 486.756,134.95 487.5,131.5C 489.404,131.262 490.738,130.262 491.5,128.5C 492.492,128.672 493.158,128.338 493.5,127.5C 495.099,127.768 496.432,127.434 497.5,126.5 Z"></path>
  </g>
  <g>
    <path style="opacity:0.804" fill="#757575" d="M 509.5,129.5 C 510.391,130.11 511.391,130.443 512.5,130.5C 513.167,130.5 513.5,130.833 513.5,131.5C 513.5,132.167 513.5,132.833 513.5,133.5C 511.659,132.598 510.326,131.264 509.5,129.5 Z"></path>
  </g>
  <g>
    <path style="opacity:0.043" fill="#a9a9a9" d="M 471.5,131.5 C 468.411,132.785 465.078,133.451 461.5,133.5C 464.544,131.989 467.878,131.322 471.5,131.5 Z"></path>
  </g>
  <g>
    <path style="opacity:1" fill="#5c5c5c" d="M 515.5,132.5 C 516.552,132.351 517.552,132.517 518.5,133C 518.034,134.299 518.034,135.799 518.5,137.5C 518.167,137.5 517.833,137.5 517.5,137.5C 517.672,136.508 517.338,135.842 516.5,135.5C 516.443,134.391 516.11,133.391 515.5,132.5 Z"></path>
  </g>
  <g>
    <path style="opacity:0.495" fill="#909090" d="M 528.5,127.5 C 528.833,127.5 529.167,127.5 529.5,127.5C 531.554,134.216 531.887,140.883 530.5,147.5C 530.799,140.711 530.132,134.044 528.5,127.5 Z"></path>
  </g>
  <g>
    <path style="opacity:0.765" fill="#7c7c7c" d="M 550.5,137.5 C 552.262,138.262 553.262,139.596 553.5,141.5C 551.738,140.738 550.738,139.404 550.5,137.5 Z"></path>
  </g>
  <g>
    <path style="opacity:0.035" fill="#a6a6a6" d="M 430.5,139.5 C 427.091,140.903 423.425,141.57 419.5,141.5C 422.909,140.097 426.575,139.43 430.5,139.5 Z"></path>
  </g>
  <g>
    <path style="opacity:1" fill="#7c7c7c" d="M 412.5,139.5 C 407.447,141.26 402.114,141.927 396.5,141.5C 396.167,141.5 395.833,141.5 395.5,141.5C 400.994,140.565 406.661,139.898 412.5,139.5 Z"></path>
  </g>
  <g>
    <path style="opacity:0.463" fill="#919191" d="M 509.5,138.5 C 510.167,138.833 510.833,139.167 511.5,139.5C 511.5,140.167 511.5,140.833 511.5,141.5C 510.094,141.027 509.427,140.027 509.5,138.5 Z"></path>
  </g>
  <g>
    <path style="opacity:0.404" fill="#a3a3a3" d="M 537.5,138.5 C 539.539,139.911 540.539,141.911 540.5,144.5C 538.992,142.819 537.992,140.819 537.5,138.5 Z"></path>
  </g>
  <g>
    <path style="opacity:1" fill="#595959" d="M 395.5,141.5 C 395.833,141.5 396.167,141.5 396.5,141.5C 394.485,142.924 392.152,143.59 389.5,143.5C 391.214,142.262 393.214,141.595 395.5,141.5 Z"></path>
  </g>
  <g>
    <path style="opacity:0.09" fill="#9b9b9b" d="M 419.5,141.5 C 414.047,143.278 408.381,144.612 402.5,145.5C 402.611,144.883 402.944,144.383 403.5,144C 408.795,142.842 414.128,142.009 419.5,141.5 Z"></path>
  </g>
  <g>
    <path style="opacity:1" fill="#4f4f4f" d="M 389.5,143.5 C 387.824,145.834 385.491,146.834 382.5,146.5C 384.509,144.935 386.843,143.935 389.5,143.5 Z"></path>
  </g>
  <g>
    <path style="opacity:0.486" fill="#8a8a8a" d="M 518.5,137.5 C 520.017,139.462 520.684,141.795 520.5,144.5C 520.493,146.369 520.16,148.036 519.5,149.5C 519.167,137.5 518.833,137.5 518.5,149.5C 518.167,149.5 517.833,149.5 517.5,149.5C 517.5,146.167 517.5,142.833 517.5,139.5C 518.338,139.158 518.672,138.492 518.5,137.5 Z"></path>
  </g>
  <g>
    <path style="opacity:0.31" fill="#949494" d="M 382.5,146.5 C 387.305,147.487 392.305,147.821 397.5,147.5C 391.987,148.816 386.32,148.816 380.5,147.5C 380.957,146.702 381.624,146.369 382.5,146.5 Z"></path>
  </g>
  <g>
    <path style="opacity:0.455" fill="#9d9d9d" d="M 540.5,144.5 C 541.931,145.78 542.598,147.447 542.5,149.5C 541.069,148.22 540.402,146.553 540.5,144.5 Z"></path>
  </g>
  <g>
    <path style="opacity:0.263" fill="#8c8c8c" d="M 556.5,145.5 C 557.906,145.973 558.573,146.973 558.5,148.5C 557.094,148.027 556.427,147.027 556.5,145.5 Z"></path>
  </g>
  <g>
    <path style="opacity:0.165" fill="#888888" d="M 488.5,142.5 C 488.324,145.727 487.657,148.727 486.5,151.5C 486.215,148.171 486.882,145.171 488.5,142.5 Z"></path>
  </g>
  <g>
    <path style="opacity:0.412" fill="#989898" d="M 517.5,149.5 C 517.5,150.5 517.5,151.5 517.5,152.5C 515.901,152.768 514.568,152.434 513.5,151.5C 515.199,151.473 516.533,150.806 517.5,149.5 Z"></path>
  </g>
  <g>
    <path style="opacity:0.671" fill="#919191" d="M 518.5,149.5 C 518.833,149.5 519.167,149.5 519.5,149.5C 519.5,150.833 519.5,152.167 519.5,153.5C 518.508,153.672 517.842,153.338 517.5,152.5C 518.404,151.791 518.737,150.791 518.5,149.5 Z"></path>
  </g>
  <g>
    <path style="opacity:0.345" fill="#7e7e7e" d="M 559.5,150.5 C 560.906,150.973 561.573,151.973 561.5,153.5C 560.094,153.027 559.427,152.027 559.5,150.5 Z"></path>
  </g>
  <g>
    <path style="opacity:0.047" fill="#aeaeae" d="M 486.5,153.5 C 486.351,154.552 486.517,155.552 487,156.5C 487.232,155.263 487.732,154.263 488.5,153.5C 488.5,154.833 488.5,156.167 488.5,157.5C 487.5,157.5 486.5,157.5 485.5,157.5C 485.232,155.901 485.566,154.568 486.5,153.5 Z"></path>
  </g>
  <g>
    <path style="opacity:0.71" fill="#979797" d="M 545.5,155.5 C 546.833,155.5 547.5,156.167 547.5,157.5C 546.5,157.167 545.833,156.5 545.5,155.5 Z"></path>
  </g>
  <g>
    <path style="opacity:0.976" fill="#5f5f5f" d="M 442.5,157.5 C 440.485,158.924 438.152,159.59 435.5,159.5C 437.515,158.076 439.848,157.41 442.5,157.5 Z"></path>
  </g>
  <g>
    <path style="opacity:0.671" fill="#7f7f7f" d="M 547.5,157.5 C 549.048,157.821 549.715,158.821 549.5,160.5C 544.5,160.5 539.5,160.5 534.5,160.5C 538.982,159.674 543.649,159.174 548.5,159C 547.944,158.617 547.611,158.117 547.5,157.5 Z"></path>
  </g>
  <g>
    <path style="opacity:0.506" fill="#979797" d="M 510.5,151.5 C 510.5,154.833 510.5,158.167 510.5,161.5C 513.059,161.198 515.393,161.532 517.5,162.5C 514.833,162.5 512.167,162.5 509.5,162.5C 506.183,165.682 504.517,165.015 504.5,160.5C 506.167,160.5 507.833,160.5 509.5,160.5C 509.19,157.287 509.523,154.287 510.5,151.5 Z"></path>
  </g>
  <g>
    <path style="opacity:0.867" fill="#808080" d="M 529.5,161.5 C 527.898,163.074 525.898,163.741 523.5,163.5C 525.214,162.262 527.214,161.595 529.5,161.5 Z"></path>
  </g>
  <g>
    <path style="opacity:0.659" fill="#747474" d="M 517.5,162.5 C 519.5,162.833 521.5,163.167 523.5,163.5C 521.32,164.794 519.32,164.461 517.5,162.5 Z"></path>
  </g>
  <g>
    <path style="opacity:1" fill="#acacac" d="M 489.5,158.5 C 489.5,161.167 489.5,163.833 489.5,166.5C 493.5,167.167 493.5,167.833 489.5,168.5C 488.218,165.064 488.218,161.731 489.5,158.5 Z"></path>
  </g>
  <g>
    <path style="opacity:0.467" fill="#8e8e8e" d="M 423.5,167.5 C 422.833,168.833 421.833,169.833 420.5,170.5C 420.5,168.5 421.5,167.5 423.5,167.5 Z"></path>
  </g>
  <g>
    <path style="opacity:0.494" fill="#7a7a7a" d="M 484.5,169.5 C 483.89,170.391 483.557,171.391 483.5,172.5C 482.115,171.053 482.448,170.053 484.5,169.5 Z"></path>
  </g>
  <g>
    <path style="opacity:0.392" fill="#7b7b7b" d="M 480.5,173.5 C 481.906,173.973 482.573,174.973 482.5,176.5C 481.094,176.027 480.427,175.027 480.5,173.5 Z"></path>
  </g>
  <g>
    <path style="opacity:1" fill="#676767" d="M 485.5,176.5 C 487.048,176.821 487.715,177.821 487.5,179.5C 486.599,178.71 485.932,177.71 485.5,176.5 Z"></path>
  </g>
  <g>
    <path style="opacity:0.153" fill="#949494" d="M 540.5,177.5 C 537.124,179.082 533.458,179.749 529.5,179.5C 532.946,178.313 536.613,177.646 540.5,177.5 Z"></path>
  </g>
  <g>
    <path style="opacity:1" fill="#212121" d="M 480.5,173.5 C 480.427,175.027 481.094,176.027 482.5,176.5C 488.52,187.462 489.02,198.796 484,210.5C 482.694,213.621 480.86,216.287 478.5,218.5C 477.5,218.833 476.833,219.5 476.5,220.5C 473.047,224.73 468.713,227.73 463.5,229.5C 454.92,231.731 446.253,232.065 437.5,230.5C 432.868,229.186 428.868,226.853 425.5,223.5C 425.027,222.094 424.027,221.427 422.5,221.5C 422.573,219.973 421.906,218.973 420.5,218.5C 418.1,216.704 416.433,214.37 415.5,211.5C 415.771,209.62 415.104,208.287 413.5,207.5C 412.962,205.883 412.629,204.216 412.5,202.5C 412.152,195.045 412.818,187.712 414.5,180.5C 415.498,176.495 417.498,173.161 420.5,170.5C 421.833,169.833 422.833,168.833 423.5,167.5C 426.458,163.349 430.458,160.682 435.5,159.5C 438.152,159.59 440.485,158.924 442.5,157.5C 453.384,155.377 463.384,157.544 472.5,164C 475.777,166.766 478.443,169.933 480.5,173.5 Z M 441.5,163.5 C 441.833,163.5 442.167,163.5 442.5,163.5C 449.317,163.064 455.984,163.731 462.5,165.5C 463.514,166.674 464.847,167.34 466.5,167.5C 466.973,168.906 467.973,169.573 469.5,169.5C 474.718,174.612 478.385,180.612 480.5,187.5C 480.687,193.212 480.354,198.879 479.5,204.5C 478.227,206.713 477.227,209.046 476.5,211.5C 475.094,211.973 474.427,212.973 474.5,214.5C 469.514,219.817 463.514,223.484 456.5,225.5C 450.455,225.697 444.455,225.363 438.5,224.5C 435.406,223.117 432.406,221.45 429.5,219.5C 427.833,217.167 425.833,215.167 423.5,213.5C 422.167,210.833 420.833,208.167 419.5,205.5C 419.198,202.627 418.531,199.961 417.5,197.5C 417.238,185.697 421.571,176.031 430.5,168.5C 432.674,168.25 434.341,167.25 435.5,165.5C 437.786,165.405 439.786,164.738 441.5,163.5 Z M 434.5,177.5 C 442.722,177.791 451.056,178.624 459.5,180C 463.649,184.801 463.316,189.301 458.5,193.5C 460.733,194.742 462.899,196.076 465,197.5C 465.498,200.482 465.665,203.482 465.5,206.5C 464.167,207.167 463.167,208.167 462.5,209.5C 461.508,209.328 460.842,209.662 460.5,210.5C 451.867,211.377 443.2,211.711 434.5,211.5C 435.167,210.833 435.833,210.167 436.5,209.5C 437.665,208.504 438.332,207.171 438.5,205.5C 437.505,197.644 437.505,189.977 438.5,182.5C 437.492,180.501 436.159,178.834 434.5,177.5 Z"></path>
  </g>
  <g>
    <path style="opacity:0.537" fill="#929292" d="M 466.5,167.5 C 468.027,167.427 469.027,168.094 469.5,169.5C 467.973,169.573 466.973,168.906 466.5,167.5 Z"></path>
  </g>
  <g>
    <path style="opacity:0.349" fill="#a2a2a2" d="M 435.5,165.5 C 434.341,167.25 432.674,168.25 430.5,168.5C 431.659,166.75 433.326,165.75 435.5,165.5 Z"></path>
  </g>
  <g>
    <path style="opacity:0.235" fill="#a2a2a2" d="M 441.5,163.5 C 439.786,164.738 437.786,165.405 435.5,165.5C 437.102,163.926 439.102,163.259 441.5,163.5 Z"></path>
  </g>
  <g>
    <path style="opacity:0.475" fill="#838383" d="M 470.5,174.5 C 472.587,175.585 473.92,177.251 474.5,179.5C 472.413,178.415 471.08,176.749 470.5,174.5 Z"></path>
  </g>
  <g>
    <path style="opacity:0.494" fill="#a5a5a5" d="M 431.5,171.5 C 429.833,173.833 427.833,175.833 425.5,177.5C 426.5,174.5 428.5,172.5 431.5,171.5 Z"></path>
  </g>
  <g>
    <path style="opacity:0.906" fill="#6e6e6e" d="M 434.5,169.5 C 434.027,170.906 433.027,171.573 431.5,171.5C 431.973,170.094 432.973,169.427 434.5,169.5 Z"></path>
  </g>
  <g>
    <path style="opacity:0.063" fill="#b5b5b5" d="M 464.5,169.5 C 466.027,169.427 467.027,170.094 467.5,171.5C 465.973,171.573 464.973,170.906 464.5,169.5 Z"></path>
  </g>
  <g>
    <path style="opacity:1" fill="#131313" d="M 460.5,167.5 C 462.153,167.66 463.486,168.326 464.5,169.5C 464.973,170.906 465.973,171.573 467.5,171.5C 468.833,172.167 469.833,173.167 470.5,174.5C 471.08,176.749 472.413,178.415 474.5,179.5C 476.065,181.509 477.065,183.843 477.5,186.5C 477.5,191.5 477.5,196.5 477.5,201.5C 477.768,203.099 477.434,204.432 476.5,205.5C 474.896,206.287 474.229,207.62 474.5,209.5C 473.094,209.973 472.427,210.973 472.5,212.5C 464.415,222.473 454.082,225.973 441.5,223C 438.826,222.33 436.493,221.163 434.5,219.5C 434.027,218.094 433.027,217.427 431.5,217.5C 430.508,217.672 429.842,217.338 429.5,216.5C 429.262,214.596 428.262,213.262 426.5,212.5C 425.094,212.027 424.427,211.027 424.5,209.5C 424.545,206.923 423.545,204.923 421.5,203.5C 421.46,198.807 421.127,194.141 420.5,189.5C 420.394,186.921 421.061,184.588 422.5,182.5C 423.906,182.027 424.573,181.027 424.5,179.5C 424.328,178.508 424.662,177.842 425.5,177.5C 427.833,175.833 429.833,173.833 431.5,171.5C 433.027,171.573 434.027,170.906 434.5,169.5C 435.514,168.326 436.847,167.66 438.5,167.5C 445.833,166.167 453.167,166.167 460.5,167.5 Z M 434.5,177.5 C 442.722,177.791 451.056,178.624 459.5,180C 463.649,184.801 463.316,189.301 458.5,193.5C 460.733,194.742 462.899,196.076 465,197.5C 465.498,200.482 465.665,203.482 465.5,206.5C 464.167,207.167 463.167,208.167 462.5,209.5C 461.508,209.328 460.842,209.662 460.5,210.5C 451.867,211.377 443.2,211.711 434.5,211.5C 435.167,210.833 435.833,210.167 436.5,209.5C 437.665,208.504 438.332,207.171 438.5,205.5C 437.505,197.644 437.505,189.977 438.5,182.5C 437.492,180.501 436.159,178.834 434.5,177.5 Z"></path>
  </g>
  <g>
    <path style="opacity:1" fill="#707070" d="M 460.5,167.5 C 453.167,166.167 445.833,166.167 438.5,167.5C 441.851,165.861 445.518,164.861 449.5,164.5C 453.436,164.977 457.103,165.977 460.5,167.5 Z"></path>
  </g>
  <g>
    <path style="opacity:0.988" fill="#8d8d8d" d="M 442.5,163.5 C 447.65,162.349 452.984,162.183 458.5,163C 460.32,163.2 461.653,164.034 462.5,165.5C 455.984,163.731 449.317,163.064 442.5,163.5 Z"></path>
  </g>
  <g>
    <path style="opacity:0.443" fill="#959595" d="M 424.5,179.5 C 424.573,181.027 423.906,182.027 422.5,182.5C 422.427,180.973 423.094,179.973 424.5,179.5 Z"></path>
  </g>
  <g>
    <path style="opacity:1" fill="#090909" d="M 457.5,182.5 C 458.219,184.764 458.552,187.097 458.5,189.5C 458.167,190.5 457.5,191.167 456.5,191.5C 451.897,192.383 447.23,192.717 442.5,192.5C 442.5,188.833 442.5,185.167 442.5,181.5C 447.547,181.337 452.547,181.671 457.5,182.5 Z"></path>
  </g>
  <g>
    <path style="opacity:0.835" fill="#6a6a6a" d="M 434.5,177.5 C 436.159,178.834 437.492,180.501 438.5,182.5C 437.505,189.977 437.505,197.644 438.5,205.5C 438.332,207.171 437.665,208.504 436.5,209.5C 436.832,199.81 436.498,190.144 435.5,180.5C 433.596,179.743 433.263,178.743 434.5,177.5 Z"></path>
  </g>
  <g>
    <path style="opacity:0.486" fill="#a0a0a0" d="M 457.5,182.5 C 458.993,183.312 459.66,184.645 459.5,186.5C 459.48,187.726 459.147,188.726 458.5,189.5C 458.552,187.097 458.219,184.764 457.5,182.5 Z"></path>
  </g>
  <g>
    <path style="opacity:0.644" fill="#888888" d="M 457.5,182.5 C 452.547,181.671 447.547,181.337 442.5,181.5C 442.5,185.167 442.5,188.833 442.5,192.5C 447.23,192.717 451.897,192.383 456.5,191.5C 456.389,192.117 456.056,192.617 455.5,193C 451.247,193.2 447.08,193.7 443,194.5C 441.563,190.028 441.063,185.361 441.5,180.5C 446.179,180.334 450.845,180.501 455.5,181C 456.416,181.278 457.082,181.778 457.5,182.5 Z"></path>
  </g>
  <g>
    <path style="opacity:0.145" fill="#919191" d="M 525.5,188.5 C 525.841,192.16 525.175,195.493 523.5,198.5C 523.753,194.96 524.419,191.627 525.5,188.5 Z"></path>
  </g>
  <g>
    <path style="opacity:0.512" fill="#787878" d="M 414.5,180.5 C 412.818,187.712 412.152,195.045 412.5,202.5C 411.349,197.35 411.183,192.016 412,186.5C 412.24,184.148 413.073,182.148 414.5,180.5 Z"></path>
  </g>
  <g>
    <path style="opacity:0.855" fill="#7b7b7b" d="M 477.5,186.5 C 479.751,191.455 479.751,196.455 477.5,201.5C 477.5,196.5 477.5,191.5 477.5,186.5 Z"></path>
  </g>
  <g>
    <path style="opacity:0.165" fill="#bcbcbc" d="M 480.5,187.5 C 481.65,192.316 481.816,197.316 481,202.5C 480.722,203.416 480.222,204.082 479.5,204.5C 480.354,198.879 480.687,193.212 480.5,187.5 Z"></path>
  </g>
  <g>
    <path style="opacity:1" fill="#777777" d="M 420.5,189.5 C 421.127,194.141 421.46,198.807 421.5,203.5C 419.544,198.913 419.211,194.246 420.5,189.5 Z"></path>
  </g>
  <g>
    <path style="opacity:1" fill="#070707" d="M 457.5,196.5 C 458.492,196.328 459.158,196.662 459.5,197.5C 460.614,200.177 460.614,202.844 459.5,205.5C 457.786,204.391 457.119,205.058 457.5,207.5C 452.5,207.5 447.5,207.5 442.5,207.5C 442.5,203.833 442.5,200.167 442.5,196.5C 447.5,196.5 452.5,196.5 457.5,196.5 Z"></path>
  </g>
  <g>
    <path style="opacity:0.264" fill="#b5b5b5" d="M 457.5,196.5 C 452.5,196.5 447.5,196.5 442.5,196.5C 442.5,200.167 442.5,203.833 442.5,207.5C 442.5,207.833 442.5,208.167 442.5,208.5C 441.515,204.366 441.182,200.032 441.5,195.5C 447.026,195.179 452.36,195.512 457.5,196.5 Z"></path>
  </g>
  <g>
    <path style="opacity:0.486" fill="#a9a9a9" d="M 417.5,197.5 C 418.531,199.961 419.198,202.627 419.5,205.5C 417.777,203.22 417.111,200.553 417.5,197.5 Z"></path>
  </g>
  <g>
    <path style="opacity:1" fill="#676767" d="M 421.5,203.5 C 423.545,204.923 424.545,206.923 424.5,209.5C 422.461,208.089 421.461,206.089 421.5,203.5 Z"></path>
  </g>
  <g>
    <path style="opacity:1" fill="#727272" d="M 459.5,197.5 C 464.111,203.146 462.778,206.979 455.5,209C 450.98,209.814 446.646,209.647 442.5,208.5C 442.5,208.167 442.5,207.833 442.5,207.5C 447.5,207.5 452.5,207.5 457.5,207.5C 457.119,205.058 457.786,204.391 459.5,205.5C 460.614,202.844 460.614,200.177 459.5,197.5 Z"></path>
  </g>
  <g>
    <path style="opacity:0.588" fill="#8d8d8d" d="M 476.5,205.5 C 476.34,207.153 475.674,208.486 474.5,209.5C 474.229,207.62 474.896,206.287 476.5,205.5 Z"></path>
  </g>
  <g>
    <path style="opacity:0.671" fill="#8b8b8b" d="M 465.5,206.5 C 465.5,208.5 464.5,209.5 462.5,209.5C 463.167,208.167 464.167,207.167 465.5,206.5 Z"></path>
  </g>
  <g>
    <path style="opacity:0.718" fill="#6b6b6b" d="M 520.5,205.5 C 520.046,210.404 519.046,215.07 517.5,219.5C 517.443,214.469 518.443,209.802 520.5,205.5 Z"></path>
  </g>
  <g>
    <path style="opacity:0.263" fill="#9c9c9c" d="M 413.5,207.5 C 415.104,208.287 415.771,209.62 415.5,211.5C 414.326,210.486 413.66,209.153 413.5,207.5 Z"></path>
  </g>
  <g>
    <path style="opacity:0.682" fill="#7f7f7f" d="M 436.5,209.5 C 435.833,210.167 435.167,210.833 434.5,211.5C 433.957,211.44 433.624,211.107 433.5,210.5C 434.325,209.614 435.325,209.281 436.5,209.5 Z"></path>
  </g>
  <g>
    <path style="opacity:0.051" fill="#afafaf" d="M 474.5,209.5 C 474.573,211.027 473.906,212.027 472.5,212.5C 472.427,210.973 473.094,209.973 474.5,209.5 Z"></path>
  </g>
  <g>
    <path style="opacity:0.625" fill="#6d6d6d" d="M 460.5,210.5 C 460.082,211.222 459.416,211.722 458.5,212C 450.323,212.823 442.323,212.656 434.5,211.5C 443.2,211.711 451.867,211.377 460.5,210.5 Z"></path>
  </g>
  <g>
    <path style="opacity:0.071" fill="#ababab" d="M 426.5,212.5 C 428.262,213.262 429.262,214.596 429.5,216.5C 427.738,215.738 426.738,214.404 426.5,212.5 Z"></path>
  </g>
  <g>
    <path style="opacity:0.463" fill="#9e9e9e" d="M 476.5,211.5 C 476.573,213.027 475.906,214.027 474.5,214.5C 474.427,212.973 475.094,211.973 476.5,211.5 Z"></path>
  </g>
  <g>
    <path style="opacity:0.847" fill="#969696" d="M 423.5,213.5 C 425.833,215.167 427.833,217.167 429.5,219.5C 426.5,218.5 424.5,216.5 423.5,213.5 Z"></path>
  </g>
  <g>
    <path style="opacity:0.71" fill="#6f6f6f" d="M 431.5,217.5 C 433.027,217.427 434.027,218.094 434.5,219.5C 432.973,219.573 431.973,218.906 431.5,217.5 Z"></path>
  </g>
  <g>
    <path style="opacity:0.051" fill="#9e9e9e" d="M 420.5,218.5 C 421.906,218.973 422.573,219.973 422.5,221.5C 421.094,221.027 420.427,220.027 420.5,218.5 Z"></path>
  </g>
  <g>
    <path style="opacity:0.008" fill="#b7b7b7" d="M 478.5,218.5 C 478.5,219.833 477.833,220.5 476.5,220.5C 476.833,219.5 477.5,218.833 478.5,218.5 Z"></path>
  </g>
  <g>
    <path style="opacity:0.584" fill="#8c8c8c" d="M 422.5,221.5 C 424.027,221.427 425.027,222.094 425.5,223.5C 423.973,223.573 422.973,222.906 422.5,221.5 Z"></path>
  </g>
  <g>
    <path style="opacity:0.494" fill="#777777" d="M 488.5,205.5 C 487.278,210.666 487.278,215.832 488.5,221C 488.684,222.376 489.351,223.209 490.5,223.5C 489.791,224.404 488.791,224.737 487.5,224.5C 487.198,219.909 486.531,215.409 485.5,211C 486.609,209.124 487.609,207.291 488.5,205.5 Z"></path>
  </g>
  <g>
    <path style="opacity:0.318" fill="#a0a0a0" d="M 505.5,221.5 C 507.265,220.539 509.265,220.205 511.5,220.5C 513.5,221.833 515.5,221.833 517.5,220.5C 519.19,220.856 520.19,221.856 520.5,223.5C 517.272,222.586 513.939,222.253 510.5,222.5C 509.081,221.549 507.415,221.216 505.5,221.5 Z"></path>
  </g>
  <g>
    <path style="opacity:0.29" fill="#b0b0b0" d="M 498.5,222.5 C 500.607,221.532 502.941,221.198 505.5,221.5C 506.209,222.404 507.209,222.737 508.5,222.5C 507.432,223.434 506.099,223.768 504.5,223.5C 502.735,222.539 500.735,222.205 498.5,222.5 Z"></path>
  </g>
  <g>
    <path style="opacity:1" fill="#0d0d0d" d="M 508.5,222.5 C 509.167,222.5 509.833,222.5 510.5,222.5C 513.939,222.253 517.272,222.586 520.5,223.5C 522.167,224.5 523.5,225.833 524.5,227.5C 524.427,229.027 525.094,230.027 526.5,230.5C 528.167,231.5 529.5,232.833 530.5,234.5C 530.414,235.496 530.748,236.329 531.5,237C 530.584,237.278 529.918,237.778 529.5,238.5C 528.833,239.167 528.167,239.833 527.5,240.5C 526.833,240.5 526.5,240.833 526.5,241.5C 525.833,241.5 525.5,241.833 525.5,242.5C 524.833,242.5 524.5,242.833 524.5,243.5C 523.833,243.5 523.5,243.833 523.5,244.5C 522.662,244.842 522.328,245.508 522.5,246.5C 522.167,246.5 521.833,246.5 521.5,246.5C 520.207,247.842 519.374,249.509 519,251.5C 518.501,255.821 518.334,260.154 518.5,264.5C 518.5,265.5 518.5,266.5 518.5,267.5C 518.5,268.167 518.5,268.833 518.5,269.5C 517.662,269.842 517.328,270.508 517.5,271.5C 517.5,272.167 517.5,272.833 517.5,273.5C 516.662,273.842 516.328,274.508 516.5,275.5C 515.662,275.842 515.328,276.508 515.5,277.5C 514.272,278.306 513.272,279.306 512.5,280.5C 511.5,281.833 510.5,281.833 509.5,280.5C 507.992,278.819 506.992,276.819 506.5,274.5C 506.25,272.326 505.25,270.659 503.5,269.5C 502.058,268.18 501.392,266.514 501.5,264.5C 501.573,262.973 500.906,261.973 499.5,261.5C 498.833,260.5 498.167,259.5 497.5,258.5C 497.672,257.508 497.338,256.842 496.5,256.5C 496.672,255.508 496.338,254.842 495.5,254.5C 495.672,253.508 495.338,252.842 494.5,252.5C 494.672,251.508 494.338,250.842 493.5,250.5C 493.737,249.209 493.404,248.209 492.5,247.5C 492.672,246.508 492.338,245.842 491.5,245.5C 491.737,244.209 491.404,243.209 490.5,242.5C 490.5,241.833 490.5,241.167 490.5,240.5C 490.741,238.102 490.074,236.102 488.5,234.5C 488.5,233.833 488.5,233.167 488.5,232.5C 488.5,230.5 488.5,228.5 488.5,226.5C 490.838,224.96 493.505,224.294 496.5,224.5C 498.099,224.768 499.432,224.434 500.5,223.5C 501.833,223.5 503.167,223.5 504.5,223.5C 506.099,223.768 507.432,223.434 508.5,222.5 Z"></path>
  </g>
  <g>
    <path style="opacity:0.031" fill="#cbcbcb" d="M 494.5,223.5 C 495.209,222.596 496.209,222.263 497.5,222.5C 498.209,223.404 499.209,223.737 500.5,223.5C 499.432,224.434 498.099,224.768 496.5,224.5C 496.158,223.662 495.492,223.328 494.5,223.5 Z"></path>
  </g>
  <g>
    <path style="opacity:0.031" fill="#c3c3c3" d="M 438.5,224.5 C 444.455,225.363 450.455,225.697 456.5,225.5C 451.35,226.651 446.016,226.817 440.5,226C 439.584,225.722 438.918,225.222 438.5,224.5 Z"></path>
  </g>
  <g>
    <path style="opacity:0.784" fill="#797979" d="M 524.5,227.5 C 525.906,227.973 526.573,228.973 526.5,230.5C 525.094,230.027 524.427,229.027 524.5,227.5 Z"></path>
  </g>
  <g>
    <path style="opacity:0.38" fill="#909090" d="M 463.5,229.5 C 461.852,230.927 459.852,231.76 457.5,232C 454.833,232.167 452.167,232.333 449.5,232.5C 445.223,232.663 441.223,231.997 437.5,230.5C 446.253,232.065 454.92,231.731 463.5,229.5 Z"></path>
  </g>
  <g>
    <path style="opacity:0.043" fill="#b5b5b5" d="M 488.5,226.5 C 488.5,228.5 488.5,230.5 488.5,232.5C 487.566,233.568 487.232,234.901 487.5,236.5C 486.978,234.781 485.978,233.448 484.5,232.5C 485.008,230.767 485.841,230.434 487,231.5C 487.198,229.618 487.698,227.952 488.5,226.5 Z"></path>
  </g>
  <g>
    <path style="opacity:1" fill="#0e0e0e" d="M 484.5,232.5 C 485.978,233.448 486.978,234.781 487.5,236.5C 487.5,236.833 487.5,237.167 487.5,237.5C 487.12,239.698 487.787,241.365 489.5,242.5C 489.12,244.698 489.787,246.365 491.5,247.5C 491.833,247.5 492.167,247.5 492.5,247.5C 492.263,248.791 492.596,249.791 493.5,250.5C 493.328,251.492 493.662,252.158 494.5,252.5C 494.328,253.492 494.662,254.158 495.5,254.5C 495.328,255.492 495.662,256.158 496.5,256.5C 496.5,257.167 496.5,257.833 496.5,258.5C 496.443,259.609 496.11,260.609 495.5,261.5C 495.5,261.833 495.5,262.167 495.5,262.5C 495.167,262.5 494.833,262.5 494.5,262.5C 493.508,262.328 492.842,262.662 492.5,263.5C 491.833,263.5 491.5,263.833 491.5,264.5C 490.508,264.328 489.842,264.662 489.5,265.5C 488.508,265.328 487.842,265.662 487.5,266.5C 486.5,266.5 485.5,266.5 484.5,266.5C 481.848,266.41 479.515,267.076 477.5,268.5C 476.5,268.5 475.5,268.5 474.5,268.5C 471.5,268.5 468.5,268.5 465.5,268.5C 464.5,268.5 463.5,268.5 462.5,268.5C 462.654,266.03 463.654,264.03 465.5,262.5C 466.906,262.027 467.573,261.027 467.5,259.5C 467.932,258.29 468.599,257.29 469.5,256.5C 470.906,256.027 471.573,255.027 471.5,253.5C 473.408,252.514 474.408,250.848 474.5,248.5C 475.906,248.027 476.573,247.027 476.5,245.5C 477.906,245.027 478.573,244.027 478.5,242.5C 479.906,242.027 480.573,241.027 480.5,239.5C 481.906,239.027 482.573,238.027 482.5,236.5C 483.906,236.027 484.573,235.027 484.5,233.5C 484.5,233.167 484.5,232.833 484.5,232.5 Z"></path>
  </g>
  <g>
    <path style="opacity:0.596" fill="#676767" d="M 484.5,233.5 C 484.573,235.027 483.906,236.027 482.5,236.5C 482.427,234.973 483.094,233.973 484.5,233.5 Z"></path>
  </g>
  <g>
    <path style="opacity:0.275" fill="#8a8a8a" d="M 530.5,234.5 C 532.104,235.287 532.771,236.62 532.5,238.5C 531.5,238.5 530.5,238.5 529.5,238.5C 529.918,237.778 530.584,237.278 531.5,237C 530.748,236.329 530.414,235.496 530.5,234.5 Z"></path>
  </g>
  <g>
    <path style="opacity:0.702" fill="#888888" d="M 488.5,234.5 C 490.074,236.102 490.741,238.102 490.5,240.5C 490.167,240.5 489.833,240.5 489.5,240.5C 489.737,239.209 489.404,238.209 488.5,237.5C 488.5,236.5 488.5,235.5 488.5,234.5 Z"></path>
  </g>
  <g>
    <path style="opacity:0.467" fill="#737373" d="M 482.5,236.5 C 482.573,238.027 481.906,239.027 480.5,239.5C 480.427,237.973 481.094,236.973 482.5,236.5 Z"></path>
  </g>
  <g>
    <path style="opacity:1" fill="#666666" d="M 487.5,237.5 C 487.833,237.5 488.167,237.5 488.5,237.5C 488.263,238.791 488.596,239.791 489.5,240.5C 489.5,241.167 489.5,241.833 489.5,242.5C 487.787,241.365 487.12,239.698 487.5,237.5 Z"></path>
  </g>
  <g>
    <path style="opacity:0.435" fill="#7c7c7c" d="M 480.5,239.5 C 480.573,241.027 479.906,242.027 478.5,242.5C 478.427,240.973 479.094,239.973 480.5,239.5 Z"></path>
  </g>
  <g>
    <path style="opacity:0.929" fill="#6a6a6a" d="M 527.5,240.5 C 528.5,240.5 529.5,240.5 530.5,240.5C 530.5,241.5 530.5,242.5 530.5,243.5C 529.778,243.082 529.278,242.416 529,241.5C 528.184,242.823 527.017,243.489 525.5,243.5C 525.5,243.167 525.5,242.833 525.5,242.5C 526.167,242.5 526.5,242.167 526.5,241.5C 527.167,241.5 527.5,241.167 527.5,240.5 Z"></path>
  </g>
  <g>
    <path style="opacity:1" fill="#090909" d="M 530.5,243.5 C 530.41,246.152 531.076,248.485 532.5,250.5C 532.5,250.833 532.5,251.167 532.5,251.5C 532.294,254.495 532.96,257.162 534.5,259.5C 534.5,260.167 534.5,260.833 534.5,261.5C 534.362,266.414 535.028,271.081 536.5,275.5C 536.5,276.167 536.5,276.833 536.5,277.5C 536.157,279.483 536.824,280.817 538.5,281.5C 538.833,281.5 539.167,281.5 539.5,281.5C 539.297,283.044 538.63,284.378 537.5,285.5C 539.113,287.088 541.113,288.088 543.5,288.5C 544.67,289.694 544.337,290.361 542.5,290.5C 540.143,290.337 537.81,290.503 535.5,291C 534.944,291.383 534.611,291.883 534.5,292.5C 534.5,292.833 534.5,293.167 534.5,293.5C 533.508,293.328 532.842,293.662 532.5,294.5C 531.833,294.5 531.5,294.833 531.5,295.5C 530.348,296.625 529.348,296.625 528.5,295.5C 527.415,293.413 525.749,292.08 523.5,291.5C 523.167,290.833 522.833,290.167 522.5,289.5C 522.13,286.733 520.796,284.733 518.5,283.5C 517.662,283.158 517.328,282.492 517.5,281.5C 517.833,278.833 518.167,276.167 518.5,273.5C 518.5,273.167 518.5,272.833 518.5,272.5C 519.338,272.158 519.672,271.492 519.5,270.5C 519.5,270.167 519.5,269.833 519.5,269.5C 520.404,268.791 520.737,267.791 520.5,266.5C 520.5,266.167 520.5,265.833 520.5,265.5C 521.485,261.366 521.818,257.032 521.5,252.5C 521.5,252.167 521.5,251.833 521.5,251.5C 522.404,250.791 522.737,249.791 522.5,248.5C 522.5,247.833 522.5,247.167 522.5,246.5C 522.833,246.5 523.167,246.5 523.5,246.5C 524.906,246.027 525.573,245.027 525.5,243.5C 527.017,243.489 528.184,242.823 529,241.5C 529.278,242.416 529.778,243.082 530.5,243.5 Z"></path>
  </g>
  <g>
    <path style="opacity:0.392" fill="#7f7f7f" d="M 478.5,242.5 C 478.573,244.027 477.906,245.027 476.5,245.5C 476.427,243.973 477.094,242.973 478.5,242.5 Z"></path>
  </g>
  <g>
    <path style="opacity:1" fill="#6b6b6b" d="M 489.5,242.5 C 489.833,242.5 490.167,242.5 490.5,242.5C 490.263,243.791 490.596,244.791 491.5,245.5C 491.5,246.167 491.5,246.833 491.5,247.5C 489.787,246.365 489.12,244.698 489.5,242.5 Z"></path>
  </g>
  <g>
    <path style="opacity:0.588" fill="#878787" d="M 524.5,243.5 C 524.833,243.5 525.167,243.5 525.5,243.5C 525.573,245.027 524.906,246.027 523.5,246.5C 523.5,245.833 523.5,245.167 523.5,244.5C 524.167,244.5 524.5,244.167 524.5,243.5 Z"></path>
  </g>
  <g>
    <path style="opacity:0.357" fill="#848484" d="M 476.5,245.5 C 476.573,247.027 475.906,248.027 474.5,248.5C 474.427,246.973 475.094,245.973 476.5,245.5 Z"></path>
  </g>
  <g>
    <path style="opacity:0.627" fill="#676767" d="M 530.5,243.5 C 531.924,245.515 532.59,247.848 532.5,250.5C 531.076,248.485 530.41,246.152 530.5,243.5 Z"></path>
  </g>
  <g>
    <path style="opacity:1" fill="#515151" d="M 474.5,248.5 C 474.408,250.848 473.408,252.514 471.5,253.5C 471.75,251.326 472.75,249.659 474.5,248.5 Z"></path>
  </g>
  <g>
    <path style="opacity:0.424" fill="#7b7b7b" d="M 471.5,253.5 C 471.573,255.027 470.906,256.027 469.5,256.5C 469.427,254.973 470.094,253.973 471.5,253.5 Z"></path>
  </g>
  <g>
    <path style="opacity:0.42" fill="#8d8d8d" d="M 521.5,246.5 C 521.328,247.492 521.662,248.158 522.5,248.5C 522.737,249.791 522.404,250.791 521.5,251.5C 520.493,249.523 520.493,249.857 521.5,252.5C 521.818,257.032 521.485,261.366 520.5,265.5C 520.666,261.486 520.499,257.486 520,253.5C 519.501,257.152 519.335,260.818 519.5,264.5C 519.167,264.5 518.833,264.5 518.5,264.5C 518.334,260.154 518.501,255.821 519,251.5C 519.374,249.509 520.207,247.842 521.5,246.5 Z"></path>
  </g>
  <g>
    <path style="opacity:0.31" fill="#868686" d="M 532.5,251.5 C 533.768,253.905 534.435,256.572 534.5,259.5C 532.96,257.162 532.294,254.495 532.5,251.5 Z"></path>
  </g>
  <g>
    <path style="opacity:0.133" fill="#adadad" d="M 496.5,258.5 C 496.833,258.5 497.167,258.5 497.5,258.5C 497.715,260.179 497.048,261.179 495.5,261.5C 496.11,260.609 496.443,259.609 496.5,258.5 Z"></path>
  </g>
  <g>
    <path style="opacity:0.263" fill="#8c8c8c" d="M 467.5,259.5 C 467.573,261.027 466.906,262.027 465.5,262.5C 465.427,260.973 466.094,259.973 467.5,259.5 Z"></path>
  </g>
  <g>
    <path style="opacity:0.031" fill="#c6c6c6" d="M 492.5,263.5 C 492.842,262.662 493.508,262.328 494.5,262.5C 494.5,263.167 494.833,263.5 495.5,263.5C 495.158,264.338 494.492,264.672 493.5,264.5C 493.5,263.833 493.167,263.5 492.5,263.5 Z"></path>
  </g>
  <g>
    <path style="opacity:0.082" fill="#a2a2a2" d="M 499.5,261.5 C 500.906,261.973 501.573,262.973 501.5,264.5C 500.883,264.389 500.383,264.056 500,263.5C 499.768,264.737 499.268,265.737 498.5,266.5C 498.5,265.5 498.5,264.5 498.5,263.5C 497.5,263.5 496.5,263.5 495.5,263.5C 495.5,263.167 495.5,262.833 495.5,262.5C 497.099,262.768 498.432,262.434 499.5,261.5 Z"></path>
  </g>
  <g>
    <path style="opacity:1" fill="#151515" d="M 495.5,263.5 C 496.5,263.5 497.5,263.5 498.5,263.5C 498.5,264.5 498.5,265.5 498.5,266.5C 497.557,269.109 495.89,271.109 493.5,272.5C 492.094,272.973 491.427,273.973 491.5,275.5C 488.179,280.152 484.513,284.485 480.5,288.5C 478.448,289.053 478.115,290.053 479.5,291.5C 480.163,293.473 480.496,295.639 480.5,298C 480.672,301.477 480.006,304.644 478.5,307.5C 477.039,308.686 475.705,308.686 474.5,307.5C 475.055,303.988 474.388,300.988 472.5,298.5C 472.5,297.833 472.167,297.5 471.5,297.5C 471.027,296.094 470.027,295.427 468.5,295.5C 467.791,294.596 466.791,294.263 465.5,294.5C 461.541,293.133 460.541,290.466 462.5,286.5C 463.924,284.485 464.59,282.152 464.5,279.5C 465.38,276.738 466.546,274.071 468,271.5C 468.671,270.748 469.504,270.414 470.5,270.5C 473.385,270.806 476.052,270.473 478.5,269.5C 479.167,269.5 479.833,269.5 480.5,269.5C 482.099,269.768 483.432,269.434 484.5,268.5C 484.5,268.167 484.5,267.833 484.5,267.5C 485.791,267.737 486.791,267.404 487.5,266.5C 488.492,266.672 489.158,266.338 489.5,265.5C 490.492,265.672 491.158,265.338 491.5,264.5C 492.167,264.5 492.833,264.5 493.5,264.5C 494.492,264.672 495.158,264.338 495.5,263.5 Z"></path>
  </g>
  <g>
    <path style="opacity:0.012" fill="#c9c9c9" d="M 518.5,264.5 C 518.833,264.5 519.167,264.5 519.5,264.5C 519.328,265.492 519.662,266.158 520.5,266.5C 520.737,267.791 520.404,268.791 519.5,269.5C 519.672,268.508 519.338,267.842 518.5,267.5C 518.5,266.5 518.5,265.5 518.5,264.5 Z"></path>
  </g>
  <g>
    <path style="opacity:0.02" fill="#afafaf" d="M 484.5,266.5 C 484.5,266.833 484.5,267.167 484.5,267.5C 480.5,267.833 480.5,268.167 484.5,268.5C 483.432,269.434 482.099,269.768 480.5,269.5C 479.791,268.596 478.791,268.263 477.5,268.5C 479.515,267.076 481.848,266.41 484.5,266.5 Z"></path>
  </g>
  <g>
    <path style="opacity:0.037" fill="#d1d1d1" d="M 465.5,268.5 C 468.5,268.5 471.5,268.5 474.5,268.5C 475.568,269.434 476.901,269.768 478.5,269.5C 476.052,270.473 473.385,270.806 470.5,270.5C 468.833,269.833 467.167,269.167 465.5,268.5 Z"></path>
  </g>
  <g>
    <path style="opacity:1" fill="#787878" d="M 534.5,261.5 C 535.801,265.943 536.468,270.609 536.5,275.5C 535.028,271.081 534.362,266.414 534.5,261.5 Z"></path>
  </g>
  <g>
    <path style="opacity:0.012" fill="#d4d4d4" d="M 518.5,269.5 C 518.5,270.167 518.833,270.5 519.5,270.5C 519.672,271.492 519.338,272.158 518.5,272.5C 518.5,271.833 518.167,271.5 517.5,271.5C 517.328,270.508 517.662,269.842 518.5,269.5 Z"></path>
  </g>
  <g>
    <path style="opacity:0.38" fill="#a1a1a1" d="M 503.5,269.5 C 505.25,270.659 506.25,272.326 506.5,274.5C 504.75,273.341 503.75,271.674 503.5,269.5 Z"></path>
  </g>
  <g>
    <path style="opacity:0.082" fill="#a7a7a7" d="M 493.5,272.5 C 493.573,274.027 492.906,275.027 491.5,275.5C 491.427,273.973 492.094,272.973 493.5,272.5 Z"></path>
  </g>
  <g>
    <path style="opacity:1" fill="#636363" d="M 517.5,273.5 C 517.833,273.5 518.167,273.5 518.5,273.5C 518.167,276.167 517.833,278.833 517.5,281.5C 515.896,280.713 515.229,279.38 515.5,277.5C 516.338,277.158 516.672,276.492 516.5,275.5C 517.338,275.158 517.672,274.492 517.5,273.5 Z"></path>
  </g>
  <g>
    <path style="opacity:0.047" fill="#b8b8b8" d="M 536.5,277.5 C 537.345,278.671 538.011,280.005 538.5,281.5C 536.824,280.817 536.157,279.483 536.5,277.5 Z"></path>
  </g>
  <g>
    <path style="opacity:0.082" fill="#b8b8b8" d="M 509.5,280.5 C 510.5,281.833 511.5,281.833 512.5,280.5C 511.5,283.167 510.5,283.167 509.5,280.5 Z"></path>
  </g>
  <g>
    <path style="opacity:1" fill="#6a6a6a" d="M 518.5,283.5 C 520.796,284.733 522.13,286.733 522.5,289.5C 520.684,287.882 519.351,285.882 518.5,283.5 Z"></path>
  </g>
  <g>
    <path style="opacity:0.647" fill="#6c6c6c" d="M 464.5,279.5 C 464.59,282.152 463.924,284.485 462.5,286.5C 462.41,283.848 463.076,281.515 464.5,279.5 Z"></path>
  </g>
  <g>
    <path style="opacity:0.024" fill="#9c9c9c" d="M 545.5,285.5 C 546.833,285.5 547.5,286.167 547.5,287.5C 546.5,287.167 545.833,286.5 545.5,285.5 Z"></path>
  </g>
  <g>
    <path style="opacity:0.392" fill="#959595" d="M 480.5,288.5 C 479.89,289.391 479.557,290.391 479.5,291.5C 478.115,290.053 478.448,289.053 480.5,288.5 Z"></path>
  </g>
  <g>
    <path style="opacity:1" fill="#1a1a1a" d="M 539.5,281.5 C 542.198,281.845 544.198,283.178 545.5,285.5C 545.833,286.5 546.5,287.167 547.5,287.5C 548.5,287.833 549.167,288.5 549.5,289.5C 549.427,291.027 550.094,292.027 551.5,292.5C 556.499,302.51 560.999,312.843 565,323.5C 567.351,326.205 569.184,329.205 570.5,332.5C 569.236,336.309 566.57,338.476 562.5,339C 560.963,340.707 559.296,342.207 557.5,343.5C 556.833,343.5 556.5,343.833 556.5,344.5C 555.957,344.56 555.624,344.893 555.5,345.5C 601.162,346.5 646.828,346.833 692.5,346.5C 641.003,347.499 589.336,347.832 537.5,347.5C 512.5,346.833 487.5,346.167 462.5,345.5C 488.522,346.157 514.188,345.491 539.5,343.5C 542.152,343.59 544.485,342.924 546.5,341.5C 546.833,341.5 547.167,341.5 547.5,341.5C 550.908,340.422 552.908,338.089 553.5,334.5C 553.427,332.973 554.094,331.973 555.5,331.5C 556.906,331.027 557.573,330.027 557.5,328.5C 557.795,326.265 557.461,324.265 556.5,322.5C 556.672,321.508 556.338,320.842 555.5,320.5C 555.737,319.209 555.404,318.209 554.5,317.5C 554.371,315.784 554.038,314.117 553.5,312.5C 553.768,310.901 553.434,309.568 552.5,308.5C 552.5,307.5 552.5,306.5 552.5,305.5C 552.741,303.102 552.074,301.102 550.5,299.5C 550.715,297.821 550.048,296.821 548.5,296.5C 548.167,294.167 546.833,292.833 544.5,292.5C 543.833,292.5 543.167,292.5 542.5,292.5C 542.5,292.167 542.5,291.833 542.5,291.5C 542.5,291.167 542.5,290.833 542.5,290.5C 544.337,290.361 544.67,289.694 543.5,288.5C 541.113,288.088 539.113,287.088 537.5,285.5C 538.63,284.378 539.297,283.044 539.5,281.5 Z"></path>
  </g>
  <g>
    <path style="opacity:0.108" fill="#bdbdbd" d="M 542.5,290.5 C 542.5,290.833 542.5,291.167 542.5,291.5C 541.508,291.328 540.842,291.662 540.5,292.5C 539.833,292.5 539.167,292.5 538.5,292.5C 537.833,291.167 537.167,291.167 536.5,292.5C 536.5,293.167 536.167,293.5 535.5,293.5C 535.5,292.833 535.167,292.5 534.5,292.5C 534.611,291.883 534.944,291.383 535.5,291C 537.81,290.503 540.143,290.337 542.5,290.5 Z"></path>
  </g>
  <g>
    <path style="opacity:0.753" fill="#939393" d="M 523.5,291.5 C 525.749,292.08 527.415,293.413 528.5,295.5C 526.251,294.92 524.585,293.587 523.5,291.5 Z"></path>
  </g>
  <g>
    <path style="opacity:0.216" fill="#8f8f8f" d="M 549.5,289.5 C 550.906,289.973 551.573,290.973 551.5,292.5C 550.094,292.027 549.427,291.027 549.5,289.5 Z"></path>
  </g>
  <g>
    <path style="opacity:0.773" fill="#979797" d="M 544.5,293.5 C 544.5,293.167 544.5,292.833 544.5,292.5C 546.833,292.833 548.167,294.167 548.5,296.5C 548.167,296.5 547.833,296.5 547.5,296.5C 547.5,295.833 547.167,295.5 546.5,295.5C 546.5,294.833 546.167,294.5 545.5,294.5C 545.5,293.833 545.167,293.5 544.5,293.5 Z"></path>
  </g>
  <g>
    <path style="opacity:1" fill="#1c1c1c" d="M 536.5,292.5 C 537.167,292.5 537.833,292.5 538.5,292.5C 539.167,292.5 539.833,292.5 540.5,292.5C 541.167,292.5 541.833,292.5 542.5,292.5C 542.842,293.338 543.508,293.672 544.5,293.5C 545.167,293.5 545.5,293.833 545.5,294.5C 546.167,294.5 546.5,294.833 546.5,295.5C 547.167,295.5 547.5,295.833 547.5,296.5C 547.5,297.167 547.833,297.5 548.5,297.5C 548.328,298.492 548.662,299.158 549.5,299.5C 549.5,300.167 549.5,300.833 549.5,301.5C 549.263,302.791 549.596,303.791 550.5,304.5C 550.5,305.167 550.833,305.5 551.5,305.5C 551.5,307.5 551.5,309.5 551.5,311.5C 551.328,312.492 551.662,313.158 552.5,313.5C 552.833,314.833 553.167,316.167 553.5,317.5C 553.196,319.796 552.196,320.129 550.5,318.5C 545.584,311.246 539.917,304.579 533.5,298.5C 533.433,297.041 533.766,295.708 534.5,294.5C 534.5,294.167 534.5,293.833 534.5,293.5C 534.833,293.5 535.167,293.5 535.5,293.5C 536.167,293.5 536.5,293.167 536.5,292.5 Z"></path>
  </g>
  <g>
    <path style="opacity:1" fill="#262626" d="M 465.5,294.5 C 466.209,295.404 467.209,295.737 468.5,295.5C 468.973,296.906 469.973,297.573 471.5,297.5C 471.328,298.492 471.662,299.158 472.5,299.5C 472.5,302.5 472.5,305.5 472.5,308.5C 471.662,308.842 471.328,309.508 471.5,310.5C 470.662,310.842 470.328,311.508 470.5,312.5C 469.833,312.5 469.5,312.833 469.5,313.5C 469.167,313.5 468.833,313.5 468.5,313.5C 467.094,313.973 466.427,314.973 466.5,316.5C 466.5,316.833 466.5,317.167 466.5,317.5C 465.833,317.5 465.5,317.833 465.5,318.5C 464.833,318.5 464.5,318.833 464.5,319.5C 463.167,319.5 462.5,320.167 462.5,321.5C 461.833,321.5 461.5,321.833 461.5,322.5C 460.094,322.973 459.427,323.973 459.5,325.5C 458.094,325.973 457.427,326.973 457.5,328.5C 457.167,328.5 456.833,328.5 456.5,328.5C 456.5,326.5 456.5,324.5 456.5,322.5C 459.39,313.385 461.39,304.052 462.5,294.5C 463.5,294.5 464.5,294.5 465.5,294.5 Z"></path>
  </g>
  <g>
    <path style="opacity:1" fill="#5c5c5c" d="M 532.5,294.5 C 533.167,294.5 533.833,294.5 534.5,294.5C 533.766,295.708 533.433,297.041 533.5,298.5C 531.952,298.179 531.285,297.179 531.5,295.5C 532.167,295.5 532.5,295.167 532.5,294.5 Z"></path>
  </g>
  <g>
    <path style="opacity:1" fill="#6c6c6c" d="M 548.5,297.5 C 548.5,297.167 548.5,296.833 548.5,296.5C 550.048,296.821 550.715,297.821 550.5,299.5C 550.167,299.5 549.833,299.5 549.5,299.5C 549.672,298.508 549.338,297.842 548.5,297.5 Z"></path>
  </g>
  <g>
    <path style="opacity:0.176" fill="#a8a8a8" d="M 550.5,299.5 C 552.074,301.102 552.741,303.102 552.5,305.5C 552.167,305.5 551.833,305.5 551.5,305.5C 551.444,302.483 551.11,302.15 550.5,304.5C 549.596,303.791 549.263,302.791 549.5,301.5C 550.338,301.158 550.672,300.492 550.5,299.5 Z"></path>
  </g>
  <g>
    <path style="opacity:0.576" fill="#838383" d="M 472.5,299.5 C 472.5,299.167 472.5,298.833 472.5,298.5C 474.388,300.988 475.055,303.988 474.5,307.5C 474.167,307.5 473.833,307.5 473.5,307.5C 473.806,304.615 473.473,301.948 472.5,299.5 Z"></path>
  </g>
  <g>
    <path style="opacity:1" fill="#414141" d="M 473.5,307.5 C 473.833,307.5 474.167,307.5 474.5,307.5C 475.705,308.686 477.039,308.686 478.5,307.5C 477.532,310.1 476.199,312.434 474.5,314.5C 474.167,314.5 473.833,314.5 473.5,314.5C 473.44,313.957 473.107,313.624 472.5,313.5C 471.482,314.193 470.482,314.859 469.5,315.5C 469.5,314.833 469.5,314.167 469.5,313.5C 470.167,313.5 470.5,313.167 470.5,312.5C 471.338,312.158 471.672,311.492 471.5,310.5C 472.338,310.158 472.672,309.492 472.5,308.5C 473.167,308.5 473.5,308.167 473.5,307.5 Z"></path>
  </g>
  <g>
    <path style="opacity:0.012" fill="#cdcdcd" d="M 552.5,308.5 C 553.434,309.568 553.768,310.901 553.5,312.5C 552.833,312.5 552.5,312.833 552.5,313.5C 551.662,313.158 551.328,312.492 551.5,311.5C 552.404,310.791 552.737,309.791 552.5,308.5 Z"></path>
  </g>
  <g>
    <path style="opacity:1" fill="#141414" d="M 473.5,314.5 C 473.167,315.833 472.833,317.167 472.5,318.5C 472.672,319.492 472.338,320.158 471.5,320.5C 470.094,320.973 469.427,321.973 469.5,323.5C 468,327.173 466,330.506 463.5,333.5C 462.517,337.298 462.183,341.298 462.5,345.5C 487.5,346.167 512.5,346.833 537.5,347.5C 460.497,347.833 383.497,347.5 306.5,346.5C 346.998,345.833 387.331,345.167 427.5,344.5C 431.67,343.376 435.67,342.042 439.5,340.5C 441.181,338.992 443.181,337.992 445.5,337.5C 448.7,336.412 451.7,335.079 454.5,333.5C 454.833,333.5 455.167,333.5 455.5,333.5C 456.906,333.027 457.573,332.027 457.5,330.5C 458.906,330.027 459.573,329.027 459.5,327.5C 460.906,327.027 461.573,326.027 461.5,324.5C 462.906,324.027 463.573,323.027 463.5,321.5C 463.833,320.833 464.167,320.167 464.5,319.5C 465.167,319.5 465.5,319.167 465.5,318.5C 466.167,318.5 466.5,318.167 466.5,317.5C 467.167,317.5 467.5,317.167 467.5,316.5C 468.167,316.5 468.5,316.167 468.5,315.5C 468.833,315.5 469.167,315.5 469.5,315.5C 470.482,314.859 471.482,314.193 472.5,313.5C 473.107,313.624 473.44,313.957 473.5,314.5 Z"></path>
  </g>
  <g>
    <path style="opacity:0.043" fill="#b0b0b0" d="M 468.5,313.5 C 468.5,314.167 468.5,314.833 468.5,315.5C 467.833,315.5 467.5,315.833 467.5,316.5C 467.167,316.5 466.833,316.5 466.5,316.5C 466.427,314.973 467.094,313.973 468.5,313.5 Z"></path>
  </g>
  <g>
    <path style="opacity:0.208" fill="#b0b0b0" d="M 473.5,314.5 C 473.833,314.5 474.167,314.5 474.5,314.5C 474.771,316.38 474.104,317.713 472.5,318.5C 472.833,317.167 473.167,315.833 473.5,314.5 Z"></path>
  </g>
  <g>
    <path style="opacity:1" fill="#505050" d="M 553.5,317.5 C 553.833,317.5 554.167,317.5 554.5,317.5C 554.263,318.791 554.596,319.791 555.5,320.5C 555.328,321.492 555.662,322.158 556.5,322.5C 556.819,324.75 556.319,326.75 555,328.5C 553.746,324.996 552.246,321.663 550.5,318.5C 552.196,320.129 553.196,319.796 553.5,317.5 Z"></path>
  </g>
  <g>
    <path style="opacity:0.824" fill="#858585" d="M 462.5,321.5 C 462.833,321.5 463.167,321.5 463.5,321.5C 463.573,323.027 462.906,324.027 461.5,324.5C 461.5,323.833 461.5,323.167 461.5,322.5C 462.167,322.5 462.5,322.167 462.5,321.5 Z"></path>
  </g>
  <g>
    <path style="opacity:0.31" fill="#a4a4a4" d="M 471.5,320.5 C 471.573,322.027 470.906,323.027 469.5,323.5C 469.427,321.973 470.094,320.973 471.5,320.5 Z"></path>
  </g>
  <g>
    <path style="opacity:0.733" fill="#727272" d="M 461.5,324.5 C 461.573,326.027 460.906,327.027 459.5,327.5C 459.5,326.833 459.5,326.167 459.5,325.5C 460.167,325.167 460.833,324.833 461.5,324.5 Z"></path>
  </g>
  <g>
    <path style="opacity:0.62" fill="#828282" d="M 459.5,327.5 C 459.573,329.027 458.906,330.027 457.5,330.5C 457.5,329.833 457.5,329.167 457.5,328.5C 458.167,328.167 458.833,327.833 459.5,327.5 Z"></path>
  </g>
  <g>
    <path style="opacity:0.847" fill="#787878" d="M 557.5,328.5 C 557.573,330.027 556.906,331.027 555.5,331.5C 555.427,329.973 556.094,328.973 557.5,328.5 Z"></path>
  </g>
  <g>
    <path style="opacity:0.847" fill="#7c7c7c" d="M 456.5,330.5 C 456.833,330.5 457.167,330.5 457.5,330.5C 457.573,332.027 456.906,333.027 455.5,333.5C 455.5,332.833 455.5,332.167 455.5,331.5C 456.167,331.5 456.5,331.167 456.5,330.5 Z"></path>
  </g>
  <g>
    <path style="opacity:0.647" fill="#606060" d="M 456.5,322.5 C 456.5,324.5 456.5,326.5 456.5,328.5C 456.5,329.167 456.5,329.833 456.5,330.5C 455.833,330.5 455.5,330.833 455.5,331.5C 453.895,332.006 453.561,332.673 454.5,333.5C 451.7,335.079 448.7,336.412 445.5,337.5C 447.165,335.203 449.498,333.87 452.5,333.5C 452.167,332.833 451.833,332.167 451.5,331.5C 453.74,328.739 455.407,325.739 456.5,322.5 Z"></path>
  </g>
  <g>
    <path style="opacity:0.627" fill="#919191" d="M 553.5,334.5 C 552.908,338.089 550.908,340.422 547.5,341.5C 549.529,339.142 551.529,336.808 553.5,334.5 Z"></path>
  </g>
  <g>
    <path style="opacity:1" fill="#6a6a6a" d="M 439.5,340.5 C 435.67,342.042 431.67,343.376 427.5,344.5C 427.577,343.25 428.244,342.417 429.5,342C 432.854,341.545 436.187,341.045 439.5,340.5 Z"></path>
  </g>
  <g>
    <path style="opacity:1" fill="#6f6f6f" d="M 546.5,341.5 C 544.485,342.924 542.152,343.59 539.5,343.5C 541.438,341.837 543.772,341.171 546.5,341.5 Z"></path>
  </g>
  <g>
    <path style="opacity:0.176" fill="#bcbcbc" d="M 463.5,333.5 C 463.5,337.167 463.5,340.833 463.5,344.5C 488.908,344.823 514.241,344.49 539.5,343.5C 514.188,345.491 488.522,346.157 462.5,345.5C 462.183,341.298 462.517,337.298 463.5,333.5 Z"></path>
  </g>
  <g>
    <path style="opacity:0.031" fill="#c9c9c9" d="M 557.5,343.5 C 602.833,344.167 648.167,344.833 693.5,345.5C 693.167,345.5 692.833,345.5 692.5,345.5C 646.997,345.832 601.664,345.499 556.5,344.5C 556.5,343.833 556.833,343.5 557.5,343.5 Z"></path>
  </g>
  <g>
    <path style="opacity:1" fill="#2b2b2b" d="M 556.5,344.5 C 601.664,345.499 646.997,345.832 692.5,345.5C 692.5,345.833 692.5,346.167 692.5,346.5C 646.828,346.833 601.162,346.5 555.5,345.5C 555.624,344.893 555.957,344.56 556.5,344.5 Z"></path>
  </g>
  <g>
    <path style="opacity:0.356" fill="#878787" d="M 427.5,344.5 C 387.331,345.167 346.998,345.833 306.5,346.5C 383.497,347.5 460.497,347.833 537.5,347.5C 589.336,347.832 641.003,347.499 692.5,346.5C 692.5,346.167 692.5,345.833 692.5,345.5C 692.833,345.5 693.167,345.5 693.5,345.5C 693.5,346.5 693.5,347.5 693.5,348.5C 564.167,348.5 434.833,348.5 305.5,348.5C 305.5,347.167 305.5,345.833 305.5,344.5C 346.167,344.5 386.833,344.5 427.5,344.5 Z"></path>
  </g>
  <g>
    <path style="opacity:1" fill="#6a6a6a" d="M 528.5,382.5 C 519.833,382.5 511.167,382.5 502.5,382.5C 506.66,381.643 510.993,380.976 515.5,380.5C 520.007,380.976 524.34,381.643 528.5,382.5 Z"></path>
  </g>
  <g>
    <path style="opacity:0.494" fill="#6c6c6c" d="M 167.5,383.5 C 149.833,383.5 132.167,383.5 114.5,383.5C 114.5,384.5 114.5,385.5 114.5,386.5C 115.791,386.263 116.791,386.596 117.5,387.5C 116.167,387.5 114.833,387.5 113.5,387.5C 113.5,385.833 113.5,384.167 113.5,382.5C 131.674,382.17 149.674,382.503 167.5,383.5 Z"></path>
  </g>
  <g>
    <path style="opacity:0.459" fill="#6f6f6f" d="M 253.5,387.5 C 254.568,386.566 255.901,386.232 257.5,386.5C 257.5,385.5 257.5,384.5 257.5,383.5C 247.833,383.5 238.167,383.5 228.5,383.5C 228.527,385.199 229.194,386.533 230.5,387.5C 226.516,387.528 225.516,385.861 227.5,382.5C 237.833,382.5 248.167,382.5 258.5,382.5C 258.5,384.167 258.5,385.833 258.5,387.5C 256.833,387.5 255.167,387.5 253.5,387.5 Z"></path>
  </g>
  <g>
    <path style="opacity:0.472" fill="#6c6c6c" d="M 322.5,387.5 C 323.806,386.533 324.473,385.199 324.5,383.5C 316.167,383.5 307.833,383.5 299.5,383.5C 299.5,384.5 299.5,385.5 299.5,386.5C 301.099,386.232 302.432,386.566 303.5,387.5C 301.833,387.5 300.167,387.5 298.5,387.5C 298.5,385.833 298.5,384.167 298.5,382.5C 307.506,382.334 316.506,382.5 325.5,383C 325.966,384.299 325.966,385.799 325.5,387.5C 324.5,387.5 323.5,387.5 322.5,387.5 Z"></path>
  </g>
  <g>
    <path style="opacity:0.494" fill="#6d6d6d" d="M 386.5,387.5 C 387.568,386.566 388.901,386.232 390.5,386.5C 390.5,385.5 390.5,384.5 390.5,383.5C 380.167,383.5 369.833,383.5 359.5,383.5C 359.5,384.5 359.5,385.5 359.5,386.5C 360.791,386.263 361.791,386.596 362.5,387.5C 361.167,387.5 359.833,387.5 358.5,387.5C 358.5,385.833 358.5,384.167 358.5,382.5C 369.5,382.5 380.5,382.5 391.5,382.5C 391.5,384.167 391.5,385.833 391.5,387.5C 389.833,387.5 388.167,387.5 386.5,387.5 Z"></path>
  </g>
  <g>
    <path style="opacity:1" fill="#161616" d="M 502.5,382.5 C 511.167,382.5 519.833,382.5 528.5,382.5C 529.167,382.5 529.833,382.5 530.5,382.5C 531.635,384.213 533.302,384.88 535.5,384.5C 539.933,385.214 543.6,387.214 546.5,390.5C 547.5,392.167 548.833,393.5 550.5,394.5C 550.817,398.702 550.483,402.702 549.5,406.5C 545.824,402.459 542.157,398.459 538.5,394.5C 538.027,393.094 537.027,392.427 535.5,392.5C 533.046,391.773 530.713,390.773 528.5,389.5C 527.01,387.72 525.01,387.054 522.5,387.5C 515.367,387.108 508.367,387.775 501.5,389.5C 498.911,389.461 496.911,390.461 495.5,392.5C 488.01,397.317 482.343,403.65 478.5,411.5C 477.048,413.848 476.382,416.514 476.5,419.5C 476.507,421.369 476.84,423.036 477.5,424.5C 477.5,424.833 477.5,425.167 477.5,425.5C 477.054,428.01 477.72,430.01 479.5,431.5C 480.404,432.209 480.737,433.209 480.5,434.5C 480.427,436.027 481.094,437.027 482.5,437.5C 482.833,439.833 484.167,441.167 486.5,441.5C 491.071,445.283 496.071,448.283 501.5,450.5C 503.562,451.776 505.896,452.61 508.5,453C 513.823,453.499 519.156,453.666 524.5,453.5C 527.228,453.829 529.562,453.163 531.5,451.5C 535.464,450.519 538.797,448.519 541.5,445.5C 542.117,445.389 542.617,445.056 543,444.5C 543.667,438.833 543.667,433.167 543,427.5C 541.065,425.241 538.565,424.241 535.5,424.5C 535.5,423.5 535.5,422.5 535.5,421.5C 545.167,421.5 554.833,421.5 564.5,421.5C 565.782,422.708 565.782,424.042 564.5,425.5C 562.591,426.348 560.591,426.682 558.5,426.5C 557.883,426.611 557.383,426.944 557,427.5C 556.501,432.489 556.334,437.489 556.5,442.5C 550.755,450.889 542.755,456.056 532.5,458C 521.32,460.124 510.32,459.957 499.5,457.5C 497.485,456.076 495.152,455.41 492.5,455.5C 488.703,455.128 485.37,453.794 482.5,451.5C 482.027,450.094 481.027,449.427 479.5,449.5C 479.027,448.094 478.027,447.427 476.5,447.5C 475.833,447.5 475.5,447.167 475.5,446.5C 474.738,444.738 473.404,443.738 471.5,443.5C 467.638,440.45 465.305,436.45 464.5,431.5C 463.167,424.5 463.167,417.5 464.5,410.5C 465.41,407.008 467.076,404.008 469.5,401.5C 472.5,399.167 475.167,396.5 477.5,393.5C 479.404,393.262 480.738,392.262 481.5,390.5C 487.84,386.273 494.84,383.606 502.5,382.5 Z"></path>
  </g>
  <g>
    <path style="opacity:0.494" fill="#6a6a6a" d="M 786.5,384.5 C 767.185,383.592 747.851,383.259 728.5,383.5C 728.5,384.5 728.5,385.5 728.5,386.5C 729.791,386.263 730.791,386.596 731.5,387.5C 730.167,387.5 728.833,387.5 727.5,387.5C 727.5,385.833 727.5,384.167 727.5,382.5C 745.503,382.333 763.503,382.5 781.5,383C 783.382,383.198 785.048,383.698 786.5,384.5 Z"></path>
  </g>
  <g>
    <path style="opacity:0.458" fill="#707070" d="M 893.5,387.5 C 894.209,386.596 895.209,386.263 896.5,386.5C 896.5,385.5 896.5,384.5 896.5,383.5C 886.167,383.5 875.833,383.5 865.5,383.5C 865.5,384.5 865.5,385.5 865.5,386.5C 867.415,386.216 869.081,386.549 870.5,387.5C 868.5,387.5 866.5,387.5 864.5,387.5C 864.5,385.833 864.5,384.167 864.5,382.5C 875.833,382.5 887.167,382.5 898.5,382.5C 899.167,386.5 897.5,388.167 893.5,387.5 Z"></path>
  </g>
  <g>
    <path style="opacity:1" fill="#121212" d="M 167.5,383.5 C 174.311,383.879 180.311,386.213 185.5,390.5C 185.427,392.027 186.094,393.027 187.5,393.5C 187.66,395.153 188.326,396.486 189.5,397.5C 191.532,405.054 189.199,411.054 182.5,415.5C 180.973,415.427 179.973,416.094 179.5,417.5C 177.897,417.312 176.563,417.812 175.5,419C 178.688,420.316 182.022,420.816 185.5,420.5C 188.719,420.776 191.385,422.109 193.5,424.5C 193.427,426.027 194.094,427.027 195.5,427.5C 200.074,435.896 199.074,443.729 192.5,451C 189.52,453.324 186.187,454.824 182.5,455.5C 179.848,455.41 177.515,456.076 175.5,457.5C 174.5,457.5 173.5,457.5 172.5,457.5C 153.167,457.5 133.833,457.5 114.5,457.5C 114.5,456.167 114.5,454.833 114.5,453.5C 116.117,452.962 117.784,452.629 119.5,452.5C 120.833,452.5 121.5,451.833 121.5,450.5C 121.5,430.167 121.5,409.833 121.5,389.5C 121.027,388.094 120.027,387.427 118.5,387.5C 118.167,387.5 117.833,387.5 117.5,387.5C 116.791,386.596 115.791,386.263 114.5,386.5C 114.5,385.5 114.5,384.5 114.5,383.5C 132.167,383.5 149.833,383.5 167.5,383.5 Z M 165.5,391.5 C 166.919,392.451 168.585,392.784 170.5,392.5C 171.514,393.674 172.847,394.34 174.5,394.5C 175.167,395.167 175.833,395.833 176.5,396.5C 177.414,399.728 177.747,403.061 177.5,406.5C 176.662,406.842 176.328,407.508 176.5,408.5C 175.094,408.973 174.427,409.973 174.5,411.5C 172.973,411.427 171.973,412.094 171.5,413.5C 169.597,413.796 167.93,414.463 166.5,415.5C 156.198,416.4 145.865,416.733 135.5,416.5C 135.5,408.167 135.5,399.833 135.5,391.5C 145.5,391.5 155.5,391.5 165.5,391.5 Z M 175.5,425.5 C 183.308,428.113 186.141,433.447 184,441.5C 183.003,443.323 181.836,444.99 180.5,446.5C 178.847,446.66 177.514,447.326 176.5,448.5C 175.209,448.263 174.209,448.596 173.5,449.5C 160.833,449.5 148.167,449.5 135.5,449.5C 135.5,441.167 135.5,432.833 135.5,424.5C 148.863,424.242 162.196,424.575 175.5,425.5 Z"></path>
  </g>
  <g>
    <path style="opacity:1" fill="#1a1a1a" d="M 253.5,387.5 C 252.791,388.404 251.791,388.737 250.5,388.5C 250.5,389.833 250.5,391.167 250.5,392.5C 250.427,394.027 251.094,395.027 252.5,395.5C 255.692,400.55 258.358,405.883 260.5,411.5C 260.427,413.027 261.094,414.027 262.5,414.5C 265.341,418.849 267.674,423.516 269.5,428.5C 269.427,430.027 270.094,431.027 271.5,431.5C 274.341,435.849 276.674,440.516 278.5,445.5C 279.167,448.167 279.833,448.167 280.5,445.5C 281.659,441.849 283.326,438.515 285.5,435.5C 286.906,435.027 287.573,434.027 287.5,432.5C 289.659,426.849 292.326,421.516 295.5,416.5C 298.126,414.236 299.459,411.236 299.5,407.5C 302.432,401.368 304.766,395.035 306.5,388.5C 305.209,388.737 304.209,388.404 303.5,387.5C 302.432,386.566 301.099,386.232 299.5,386.5C 299.5,385.5 299.5,384.5 299.5,383.5C 307.833,383.5 316.167,383.5 324.5,383.5C 324.473,385.199 323.806,386.533 322.5,387.5C 319.845,388.001 317.678,389.334 316,391.5C 313.392,397.053 310.559,402.387 307.5,407.5C 306.094,407.973 305.427,408.973 305.5,410.5C 298.186,426.627 290.186,442.46 281.5,458C 278.167,458.667 274.833,458.667 271.5,458C 260.172,438.511 249.506,418.677 239.5,398.5C 239.715,396.821 239.048,395.821 237.5,395.5C 236.55,391.587 234.217,388.92 230.5,387.5C 229.194,386.533 228.527,385.199 228.5,383.5C 238.167,383.5 247.833,383.5 257.5,383.5C 257.5,384.5 257.5,385.5 257.5,386.5C 255.901,386.232 254.568,386.566 253.5,387.5 Z"></path>
  </g>
  <g>
    <path style="opacity:1" fill="#111111" d="M 386.5,387.5 C 385.329,388.345 383.995,389.011 382.5,389.5C 381.503,409.993 381.169,430.66 381.5,451.5C 394.504,451.667 407.504,451.5 420.5,451C 421.416,450.722 422.082,450.222 422.5,449.5C 423.93,448.463 425.597,447.796 427.5,447.5C 429.394,446.952 431.06,445.952 432.5,444.5C 433.298,444.957 433.631,445.624 433.5,446.5C 431.75,450.335 429.75,454.001 427.5,457.5C 404.833,457.5 382.167,457.5 359.5,457.5C 359.433,456.041 359.766,454.708 360.5,453.5C 363.064,453.021 365.564,452.355 368,451.5C 368.833,430.825 368.666,410.159 367.5,389.5C 365.925,388.544 364.258,387.877 362.5,387.5C 361.791,386.596 360.791,386.263 359.5,386.5C 359.5,385.5 359.5,384.5 359.5,383.5C 369.833,383.5 380.167,383.5 390.5,383.5C 390.5,384.5 390.5,385.5 390.5,386.5C 388.901,386.232 387.568,386.566 386.5,387.5 Z"></path>
  </g>
  <g>
    <path style="opacity:0.616" fill="#808080" d="M 530.5,382.5 C 532.403,382.796 534.07,383.463 535.5,384.5C 533.302,384.88 531.635,384.213 530.5,382.5 Z"></path>
  </g>
  <g>
    <path style="opacity:1" fill="#141414" d="M 646.5,383.5 C 646.427,385.027 647.094,386.027 648.5,386.5C 654.675,397.516 660.341,408.849 665.5,420.5C 665.427,422.027 666.094,423.027 667.5,423.5C 672.516,432.868 677.516,442.201 682.5,451.5C 683.552,453.256 685.219,453.923 687.5,453.5C 687.833,453.5 688.167,453.5 688.5,453.5C 689.234,454.708 689.567,456.041 689.5,457.5C 679.833,457.5 670.167,457.5 660.5,457.5C 660.433,456.041 660.766,454.708 661.5,453.5C 663.848,453.408 665.514,452.408 666.5,450.5C 666.573,448.973 665.906,447.973 664.5,447.5C 662.895,444.622 661.561,441.622 660.5,438.5C 646.328,437.174 631.994,437.174 617.5,438.5C 616.873,439.417 616.539,440.417 616.5,441.5C 615.326,442.514 614.66,443.847 614.5,445.5C 614.672,446.492 614.338,447.158 613.5,447.5C 611.655,448.995 611.322,450.662 612.5,452.5C 613.791,452.263 614.791,452.596 615.5,453.5C 616.806,454.467 617.473,455.801 617.5,457.5C 609.167,457.5 600.833,457.5 592.5,457.5C 592.433,456.041 592.766,454.708 593.5,453.5C 598.509,453.483 601.842,451.149 603.5,446.5C 604.906,446.027 605.573,445.027 605.5,443.5C 605.5,443.167 605.5,442.833 605.5,442.5C 607.25,441.341 608.25,439.674 608.5,437.5C 615.992,421.182 623.992,405.182 632.5,389.5C 633.376,389.631 634.043,389.298 634.5,388.5C 635.074,386.941 635.74,385.441 636.5,384C 639.817,383.502 643.15,383.335 646.5,383.5 Z M 641.5,397.5 C 642.042,400.912 643.375,403.912 645.5,406.5C 645.402,408.553 646.069,410.22 647.5,411.5C 647.66,413.153 648.326,414.486 649.5,415.5C 649.707,418.241 650.707,420.574 652.5,422.5C 652.66,424.153 653.326,425.486 654.5,426.5C 649.712,427.828 644.546,428.495 639,428.5C 633.656,428.499 628.489,428.166 623.5,427.5C 628.326,419.854 632.659,411.854 636.5,403.5C 637.674,402.486 638.34,401.153 638.5,399.5C 639.222,398.449 640.222,397.782 641.5,397.5 Z"></path>
  </g>
  <g>
    <path style="opacity:1" fill="#0d0d0d" d="M 786.5,384.5 C 787.167,384.5 787.833,384.5 788.5,384.5C 789.635,386.213 791.302,386.88 793.5,386.5C 795.153,386.66 796.486,387.326 797.5,388.5C 798.785,390.452 800.451,392.118 802.5,393.5C 802.427,395.027 803.094,396.027 804.5,396.5C 808.586,410.978 803.253,420.312 788.5,424.5C 786.712,424.215 785.045,424.548 783.5,425.5C 784.325,426.386 785.325,426.719 786.5,426.5C 789.01,428.676 791.677,430.676 794.5,432.5C 794.427,434.027 795.094,435.027 796.5,435.5C 796.427,437.027 797.094,438.027 798.5,438.5C 798.427,440.027 799.094,441.027 800.5,441.5C 800.427,443.027 801.094,444.027 802.5,444.5C 803.338,444.842 803.672,445.508 803.5,446.5C 803.427,448.027 804.094,449.027 805.5,449.5C 806.683,450.504 808.016,451.338 809.5,452C 813.025,452.179 816.359,452.679 819.5,453.5C 819.5,454.833 819.5,456.167 819.5,457.5C 812.798,457.664 806.131,457.331 799.5,456.5C 799.167,456.5 798.833,456.5 798.5,456.5C 798.027,455.094 797.027,454.427 795.5,454.5C 795.027,453.094 794.027,452.427 792.5,452.5C 788.75,445.998 784.75,439.665 780.5,433.5C 779.829,432.153 779.829,430.986 780.5,430C 780,429.5 779.5,429 779,428.5C 776.973,428.986 774.807,428.986 772.5,428.5C 772.167,428.5 771.833,428.5 771.5,428.5C 764.687,427.509 757.687,427.175 750.5,427.5C 750.174,435.684 750.508,443.684 751.5,451.5C 752.918,453.308 754.918,453.975 757.5,453.5C 758.806,454.467 759.473,455.801 759.5,457.5C 749.167,457.5 738.833,457.5 728.5,457.5C 728.5,456.5 728.5,455.5 728.5,454.5C 730.786,454.405 732.786,453.738 734.5,452.5C 735.29,451.599 736.29,450.932 737.5,450.5C 738.167,440.506 738.5,430.339 738.5,420C 738.499,409.477 737.832,399.311 736.5,389.5C 735.817,387.824 734.483,387.157 732.5,387.5C 732.167,387.5 731.833,387.5 731.5,387.5C 730.791,386.596 729.791,386.263 728.5,386.5C 728.5,385.5 728.5,384.5 728.5,383.5C 747.851,383.259 767.185,383.592 786.5,384.5 Z M 776.5,391.5 C 778.717,392.369 781.05,392.702 783.5,392.5C 784.514,393.674 785.847,394.34 787.5,394.5C 787.833,395.5 788.5,396.167 789.5,396.5C 789.932,397.71 790.599,398.71 791.5,399.5C 791.605,403.548 791.272,407.548 790.5,411.5C 789.094,411.973 788.427,412.973 788.5,414.5C 787.833,414.5 787.5,414.833 787.5,415.5C 785.973,415.427 784.973,416.094 784.5,417.5C 782.597,417.796 780.93,418.463 779.5,419.5C 770.199,420.387 760.866,420.721 751.5,420.5C 751.5,410.833 751.5,401.167 751.5,391.5C 759.833,391.5 768.167,391.5 776.5,391.5 Z"></path>
  </g>
  <g>
    <path style="opacity:1" fill="#101010" d="M 893.5,387.5 C 892.609,388.11 891.609,388.443 890.5,388.5C 889.504,388.414 888.671,388.748 888,389.5C 887.171,410.004 887.337,430.337 888.5,450.5C 891.491,452.417 894.824,453.417 898.5,453.5C 898.714,455.144 898.38,456.644 897.5,458C 886.833,458.667 876.167,458.667 865.5,458C 864.62,456.644 864.286,455.144 864.5,453.5C 867.127,452.908 869.794,452.575 872.5,452.5C 873.496,452.586 874.329,452.252 875,451.5C 875.667,430.833 875.667,410.167 875,389.5C 874.329,388.748 873.496,388.414 872.5,388.5C 871.508,388.672 870.842,388.338 870.5,387.5C 869.081,386.549 867.415,386.216 865.5,386.5C 865.5,385.5 865.5,384.5 865.5,383.5C 875.833,383.5 886.167,383.5 896.5,383.5C 896.5,384.5 896.5,385.5 896.5,386.5C 895.209,386.263 894.209,386.596 893.5,387.5 Z"></path>
  </g>
  <g>
    <path style="opacity:0.275" fill="#868686" d="M 646.5,383.5 C 647.906,383.973 648.573,384.973 648.5,386.5C 647.094,386.027 646.427,385.027 646.5,383.5 Z"></path>
  </g>
  <g>
    <path style="opacity:0.729" fill="#747474" d="M 788.5,384.5 C 790.403,384.796 792.07,385.463 793.5,386.5C 791.302,386.88 789.635,386.213 788.5,384.5 Z"></path>
  </g>
  <g>
    <path style="opacity:1" fill="#737373" d="M 522.5,387.5 C 525.01,387.054 527.01,387.72 528.5,389.5C 526.302,389.125 524.302,388.458 522.5,387.5 Z"></path>
  </g>
  <g>
    <path style="opacity:1" fill="#6d6d6d" d="M 732.5,387.5 C 734.483,387.157 735.817,387.824 736.5,389.5C 734.847,389.34 733.514,388.674 732.5,387.5 Z"></path>
  </g>
  <g>
    <path style="opacity:0.31" fill="#8e8e8e" d="M 118.5,387.5 C 120.027,387.427 121.027,388.094 121.5,389.5C 119.973,389.573 118.973,388.906 118.5,387.5 Z"></path>
  </g>
  <g>
    <path style="opacity:1" fill="#515151" d="M 646.5,383.5 C 643.15,383.335 639.817,383.502 636.5,384C 635.74,385.441 635.074,386.941 634.5,388.5C 634.043,389.298 633.376,389.631 632.5,389.5C 633.086,387.16 634.086,384.993 635.5,383C 639.358,382.19 643.024,382.357 646.5,383.5 Z"></path>
  </g>
  <g>
    <path style="opacity:0.224" fill="#a1a1a1" d="M 501.5,389.5 C 499.819,391.008 497.819,392.008 495.5,392.5C 496.911,390.461 498.911,389.461 501.5,389.5 Z"></path>
  </g>
  <g>
    <path style="opacity:0.008" fill="#9a9a9a" d="M 546.5,390.5 C 548.833,390.833 550.167,392.167 550.5,394.5C 548.833,393.5 547.5,392.167 546.5,390.5 Z"></path>
  </g>
  <g>
    <path style="opacity:0.522" fill="#808080" d="M 797.5,388.5 C 800.189,389.189 801.856,390.856 802.5,393.5C 800.451,392.118 798.785,390.452 797.5,388.5 Z"></path>
  </g>
  <g>
    <path style="opacity:0.522" fill="#939393" d="M 185.5,390.5 C 186.906,390.973 187.573,391.973 187.5,393.5C 186.094,393.027 185.427,392.027 185.5,390.5 Z"></path>
  </g>
  <g>
    <path style="opacity:0.698" fill="#6b6b6b" d="M 481.5,390.5 C 480.738,392.262 479.404,393.262 477.5,393.5C 478.262,391.738 479.596,390.738 481.5,390.5 Z"></path>
  </g>
  <g>
    <path style="opacity:0.566" fill="#575757" d="M 736.5,389.5 C 737.832,399.311 738.499,409.477 738.5,420C 738.5,430.339 738.167,440.506 737.5,450.5C 737.821,430.091 737.488,409.758 736.5,389.5 Z"></path>
  </g>
  <g>
    <path style="opacity:0.242" fill="#8c8c8c" d="M 890.5,388.5 C 890.217,389.289 889.717,389.956 889,390.5C 888.5,410.497 888.333,430.497 888.5,450.5C 887.337,430.337 887.171,410.004 888,389.5C 888.671,388.748 889.504,388.414 890.5,388.5 Z"></path>
  </g>
  <g>
    <path style="opacity:1" fill="#686868" d="M 170.5,392.5 C 172.483,392.157 173.817,392.824 174.5,394.5C 172.847,394.34 171.514,393.674 170.5,392.5 Z"></path>
  </g>
  <g>
    <path style="opacity:0.537" fill="#727272" d="M 535.5,392.5 C 537.027,392.427 538.027,393.094 538.5,394.5C 536.973,394.573 535.973,393.906 535.5,392.5 Z"></path>
  </g>
  <g>
    <path style="opacity:0.463" fill="#9e9e9e" d="M 783.5,392.5 C 785.38,392.229 786.713,392.896 787.5,394.5C 785.847,394.34 784.514,393.674 783.5,392.5 Z"></path>
  </g>
  <g>
    <path style="opacity:0.11" fill="#9b9b9b" d="M 250.5,392.5 C 251.906,392.973 252.573,393.973 252.5,395.5C 251.094,395.027 250.427,394.027 250.5,392.5 Z"></path>
  </g>
  <g>
    <path style="opacity:0.741" fill="#939393" d="M 787.5,394.5 C 788.833,394.5 789.5,395.167 789.5,396.5C 788.5,396.167 787.833,395.5 787.5,394.5 Z"></path>
  </g>
  <g>
    <path style="opacity:0.184" fill="#878787" d="M 187.5,393.5 C 189.104,394.287 189.771,395.62 189.5,397.5C 188.326,396.486 187.66,395.153 187.5,393.5 Z"></path>
  </g>
  <g>
    <path style="opacity:1" fill="#6c6c6c" d="M 237.5,395.5 C 239.048,395.821 239.715,396.821 239.5,398.5C 238.599,397.71 237.932,396.71 237.5,395.5 Z"></path>
  </g>
  <g>
    <path style="opacity:0.095" fill="#b7b7b7" d="M 776.5,391.5 C 768.167,391.5 759.833,391.5 751.5,391.5C 751.5,401.167 751.5,410.833 751.5,420.5C 751.167,420.5 750.833,420.5 750.5,420.5C 750.5,410.5 750.5,400.5 750.5,390.5C 759.349,390.174 768.016,390.507 776.5,391.5 Z"></path>
  </g>
  <g>
    <path style="opacity:0.384" fill="#7b7b7b" d="M 802.5,393.5 C 803.906,393.973 804.573,394.973 804.5,396.5C 803.094,396.027 802.427,395.027 802.5,393.5 Z"></path>
  </g>
  <g>
    <path style="opacity:0.753" fill="#727272" d="M 477.5,393.5 C 475.167,396.5 472.5,399.167 469.5,401.5C 471.167,397.833 473.833,395.167 477.5,393.5 Z"></path>
  </g>
  <g>
    <path style="opacity:0.29" fill="#a0a0a0" d="M 641.5,397.5 C 640.222,397.782 639.222,398.449 638.5,399.5C 638.33,398.178 638.663,397.011 639.5,396C 640.816,395.472 641.483,395.972 641.5,397.5 Z"></path>
  </g>
  <g>
    <path style="opacity:1" fill="#6a6a6a" d="M 789.5,396.5 C 791.048,396.821 791.715,397.821 791.5,399.5C 790.599,398.71 789.932,397.71 789.5,396.5 Z"></path>
  </g>
  <g>
    <path style="opacity:0.016" fill="#cacaca" d="M 872.5,388.5 C 873.496,388.414 874.329,388.748 875,389.5C 875.667,410.167 875.667,430.833 875,451.5C 874.329,452.252 873.496,452.586 872.5,452.5C 872.783,451.711 873.283,451.044 874,450.5C 874.667,430.5 874.667,410.5 874,390.5C 873.283,389.956 872.783,389.289 872.5,388.5 Z"></path>
  </g>
  <g>
    <path style="opacity:0.063" fill="#bababa" d="M 176.5,396.5 C 177.777,397.694 178.444,399.36 178.5,401.5C 178.493,403.369 178.16,405.036 177.5,406.5C 177.747,403.061 177.414,399.728 176.5,396.5 Z"></path>
  </g>
  <g>
    <path style="opacity:0.349" fill="#adadad" d="M 638.5,399.5 C 638.34,401.153 637.674,402.486 636.5,403.5C 636.229,401.62 636.896,400.287 638.5,399.5 Z"></path>
  </g>
  <g>
    <path style="opacity:0.067" fill="#bbbbbb" d="M 550.5,394.5 C 551.811,398.683 551.811,403.016 550.5,407.5C 549.893,407.376 549.56,407.043 549.5,406.5C 550.483,402.702 550.817,398.702 550.5,394.5 Z"></path>
  </g>
  <g>
    <path style="opacity:0.71" fill="#939393" d="M 176.5,408.5 C 176.573,410.027 175.906,411.027 174.5,411.5C 174.427,409.973 175.094,408.973 176.5,408.5 Z"></path>
  </g>
  <g>
    <path style="opacity:0.18" fill="#979797" d="M 307.5,407.5 C 307.573,409.027 306.906,410.027 305.5,410.5C 305.427,408.973 306.094,407.973 307.5,407.5 Z"></path>
  </g>
  <g>
    <path style="opacity:0.525" fill="#939393" d="M 645.5,406.5 C 646.931,407.78 647.598,409.447 647.5,411.5C 646.069,410.22 645.402,408.553 645.5,406.5 Z"></path>
  </g>
  <g>
    <path style="opacity:0.69" fill="#8c8c8c" d="M 174.5,411.5 C 174.027,412.906 173.027,413.573 171.5,413.5C 171.973,412.094 172.973,411.427 174.5,411.5 Z"></path>
  </g>
  <g>
    <path style="opacity:1" fill="#4a4a4a" d="M 299.5,407.5 C 299.459,411.236 298.126,414.236 295.5,416.5C 296.042,413.088 297.375,410.088 299.5,407.5 Z"></path>
  </g>
  <g>
    <path style="opacity:0.216" fill="#909090" d="M 260.5,411.5 C 261.906,411.973 262.573,412.973 262.5,414.5C 261.094,414.027 260.427,413.027 260.5,411.5 Z"></path>
  </g>
  <g>
    <path style="opacity:0.569" fill="#868686" d="M 790.5,411.5 C 790.573,413.027 789.906,414.027 788.5,414.5C 788.427,412.973 789.094,411.973 790.5,411.5 Z"></path>
  </g>
  <g>
    <path style="opacity:0.855" fill="#8c8c8c" d="M 171.5,413.5 C 170.365,415.213 168.698,415.88 166.5,415.5C 167.93,414.463 169.597,413.796 171.5,413.5 Z"></path>
  </g>
  <g>
    <path style="opacity:0.358" fill="#afafaf" d="M 165.5,391.5 C 155.5,391.5 145.5,391.5 135.5,391.5C 135.5,399.833 135.5,408.167 135.5,416.5C 145.865,416.733 156.198,416.4 166.5,415.5C 165.737,416.268 164.737,416.768 163.5,417C 153.839,417.5 144.172,417.666 134.5,417.5C 134.5,408.5 134.5,399.5 134.5,390.5C 145.014,390.172 155.347,390.506 165.5,391.5 Z"></path>
  </g>
  <g>
    <path style="opacity:0.008" fill="#a9a9a9" d="M 182.5,415.5 C 182.027,416.906 181.027,417.573 179.5,417.5C 179.973,416.094 180.973,415.427 182.5,415.5 Z"></path>
  </g>
  <g>
    <path style="opacity:0.247" fill="#adadad" d="M 649.5,415.5 C 651.293,417.426 652.293,419.759 652.5,422.5C 650.707,420.574 649.707,418.241 649.5,415.5 Z"></path>
  </g>
  <g>
    <path style="opacity:0.702" fill="#898989" d="M 787.5,415.5 C 787.027,416.906 786.027,417.573 784.5,417.5C 784.973,416.094 785.973,415.427 787.5,415.5 Z"></path>
  </g>
  <g>
    <path style="opacity:0.255" fill="#8a8a8a" d="M 478.5,411.5 C 477.8,415.798 477.467,420.131 477.5,424.5C 476.84,423.036 476.507,421.369 476.5,419.5C 476.382,416.514 477.048,413.848 478.5,411.5 Z"></path>
  </g>
  <g>
    <path style="opacity:0.969" fill="#787878" d="M 784.5,417.5 C 783.365,419.213 781.698,419.88 779.5,419.5C 780.93,418.463 782.597,417.796 784.5,417.5 Z"></path>
  </g>
  <g>
    <path style="opacity:1" fill="#767676" d="M 179.5,417.5 C 181.156,419.06 183.156,420.06 185.5,420.5C 182.022,420.816 178.688,420.316 175.5,419C 176.563,417.812 177.897,417.312 179.5,417.5 Z"></path>
  </g>
  <g>
    <path style="opacity:0.459" fill="#848484" d="M 464.5,410.5 C 463.167,417.5 463.167,424.5 464.5,431.5C 462.97,428.305 462.304,424.805 462.5,421C 462.304,417.195 462.97,413.695 464.5,410.5 Z"></path>
  </g>
  <g>
    <path style="opacity:0.415" fill="#919191" d="M 779.5,419.5 C 778.737,420.268 777.737,420.768 776.5,421C 767.657,421.824 758.99,421.657 750.5,420.5C 750.833,420.5 751.167,420.5 751.5,420.5C 760.866,420.721 770.199,420.387 779.5,419.5 Z"></path>
  </g>
  <g>
    <path style="opacity:0.153" fill="#979797" d="M 665.5,420.5 C 666.906,420.973 667.573,421.973 667.5,423.5C 666.094,423.027 665.427,422.027 665.5,420.5 Z"></path>
  </g>
  <g>
    <path style="opacity:0.072" fill="#c4c4c4" d="M 175.5,425.5 C 162.196,424.575 148.863,424.242 135.5,424.5C 135.5,432.833 135.5,441.167 135.5,449.5C 148.167,449.5 160.833,449.5 173.5,449.5C 160.677,450.495 147.677,450.829 134.5,450.5C 134.5,441.5 134.5,432.5 134.5,423.5C 147.171,423.333 159.838,423.5 172.5,424C 173.737,424.232 174.737,424.732 175.5,425.5 Z"></path>
  </g>
  <g>
    <path style="opacity:0.043" fill="#ababab" d="M 788.5,424.5 C 787.833,425.167 787.167,425.833 786.5,426.5C 785.325,426.719 784.325,426.386 783.5,425.5C 785.045,424.548 786.712,424.215 788.5,424.5 Z"></path>
  </g>
  <g>
    <path style="opacity:0.29" fill="#939393" d="M 193.5,424.5 C 194.906,424.973 195.573,425.973 195.5,427.5C 194.094,427.027 193.427,426.027 193.5,424.5 Z"></path>
  </g>
  <g>
    <path style="opacity:0.195" fill="#c4c4c4" d="M 654.5,426.5 C 655.404,427.209 655.737,428.209 655.5,429.5C 644.48,429.832 633.48,429.499 622.5,428.5C 622.624,427.893 622.957,427.56 623.5,427.5C 628.489,428.166 633.656,428.499 639,428.5C 644.546,428.495 649.712,427.828 654.5,426.5 Z"></path>
  </g>
  <g>
    <path style="opacity:1" fill="#545454" d="M 786.5,426.5 C 790.311,427.063 792.977,429.063 794.5,432.5C 791.677,430.676 789.01,428.676 786.5,426.5 Z"></path>
  </g>
  <g>
    <path style="opacity:1" fill="#6e6e6e" d="M 477.5,425.5 C 478.458,427.302 479.125,429.302 479.5,431.5C 477.72,430.01 477.054,428.01 477.5,425.5 Z"></path>
  </g>
  <g>
    <path style="opacity:1" fill="#3b3b3b" d="M 772.5,428.5 C 774.807,428.986 776.973,428.986 779,428.5C 779.5,429 780,429.5 780.5,430C 779.829,430.986 779.829,432.153 780.5,433.5C 777.797,431.819 775.131,430.153 772.5,428.5 Z"></path>
  </g>
  <g>
    <path style="opacity:0.196" fill="#949494" d="M 269.5,428.5 C 270.906,428.973 271.573,429.973 271.5,431.5C 270.094,431.027 269.427,430.027 269.5,428.5 Z"></path>
  </g>
  <g>
    <path style="opacity:0.46" fill="#767676" d="M 564.5,421.5 C 554.833,421.5 545.167,421.5 535.5,421.5C 535.5,422.5 535.5,423.5 535.5,424.5C 538.565,424.241 541.065,425.241 543,427.5C 543.667,433.167 543.667,438.833 543,444.5C 542.617,445.056 542.117,445.389 541.5,445.5C 542.521,439.87 542.687,434.204 542,428.5C 539.777,426.329 537.277,425.496 534.5,426C 533.446,424.612 533.28,423.112 534,421.5C 544.265,420.171 554.431,420.171 564.5,421.5 Z"></path>
  </g>
  <g>
    <path style="opacity:0.008" fill="#c9c9c9" d="M 771.5,428.5 C 764.833,428.5 758.167,428.5 751.5,428.5C 751.5,436.167 751.5,443.833 751.5,451.5C 750.508,443.684 750.174,435.684 750.5,427.5C 757.687,427.175 764.687,427.509 771.5,428.5 Z"></path>
  </g>
  <g>
    <path style="opacity:0.056" fill="#b9b9b9" d="M 558.5,426.5 C 557.925,431.969 557.259,437.302 556.5,442.5C 556.334,437.489 556.501,432.489 557,427.5C 557.383,426.944 557.883,426.611 558.5,426.5 Z"></path>
  </g>
  <g>
    <path style="opacity:0.196" fill="#949494" d="M 287.5,432.5 C 287.573,434.027 286.906,435.027 285.5,435.5C 285.427,433.973 286.094,432.973 287.5,432.5 Z"></path>
  </g>
  <g>
    <path style="opacity:0.451" fill="#717171" d="M 794.5,432.5 C 795.906,432.973 796.573,433.973 796.5,435.5C 795.094,435.027 794.427,434.027 794.5,432.5 Z"></path>
  </g>
  <g>
    <path style="opacity:0.424" fill="#797979" d="M 480.5,434.5 C 481.906,434.973 482.573,435.973 482.5,437.5C 481.094,437.027 480.427,436.027 480.5,434.5 Z"></path>
  </g>
  <g>
    <path style="opacity:0.03" fill="#c3c3c3" d="M 660.5,438.5 C 646.484,438.167 632.484,438.501 618.5,439.5C 618.145,440.522 617.478,441.189 616.5,441.5C 616.539,440.417 616.873,439.417 617.5,438.5C 631.994,437.174 646.328,437.174 660.5,438.5 Z"></path>
  </g>
  <g>
    <path style="opacity:0.584" fill="#6a6a6a" d="M 796.5,435.5 C 797.906,435.973 798.573,436.973 798.5,438.5C 797.094,438.027 796.427,437.027 796.5,435.5 Z"></path>
  </g>
  <g>
    <path style="opacity:1" fill="#6a6a6a" d="M 482.5,437.5 C 484.167,438.5 485.5,439.833 486.5,441.5C 484.167,441.167 482.833,439.833 482.5,437.5 Z"></path>
  </g>
  <g>
    <path style="opacity:0.18" fill="#939393" d="M 608.5,437.5 C 608.25,439.674 607.25,441.341 605.5,442.5C 605.75,440.326 606.75,438.659 608.5,437.5 Z"></path>
  </g>
  <g>
    <path style="opacity:0.451" fill="#717171" d="M 798.5,438.5 C 799.906,438.973 800.573,439.973 800.5,441.5C 799.094,441.027 798.427,440.027 798.5,438.5 Z"></path>
  </g>
  <g>
    <path style="opacity:0.035" fill="#cccccc" d="M 431.5,443.5 C 432.568,442.566 433.901,442.232 435.5,442.5C 435.737,443.791 435.404,444.791 434.5,445.5C 434.179,443.952 433.179,443.285 431.5,443.5 Z"></path>
  </g>
  <g>
    <path style="opacity:0.678" fill="#7f7f7f" d="M 471.5,443.5 C 473.404,443.738 474.738,444.738 475.5,446.5C 473.596,446.262 472.262,445.262 471.5,443.5 Z"></path>
  </g>
  <g>
    <path style="opacity:0.333" fill="#838383" d="M 800.5,441.5 C 801.906,441.973 802.573,442.973 802.5,444.5C 801.094,444.027 800.427,443.027 800.5,441.5 Z"></path>
  </g>
  <g>
    <path style="opacity:0.961" fill="#535353" d="M 431.5,443.5 C 433.179,443.285 434.179,443.952 434.5,445.5C 434.5,446.167 434.167,446.5 433.5,446.5C 433.631,445.624 433.298,444.957 432.5,444.5C 431.06,445.952 429.394,446.952 427.5,447.5C 428.5,445.833 429.833,444.5 431.5,443.5 Z"></path>
  </g>
  <g>
    <path style="opacity:0.11" fill="#9a9a9a" d="M 616.5,441.5 C 616.771,443.38 616.104,444.713 614.5,445.5C 614.66,443.847 615.326,442.514 616.5,441.5 Z"></path>
  </g>
  <g>
    <path style="opacity:0.18" fill="#939393" d="M 605.5,443.5 C 605.573,445.027 604.906,446.027 603.5,446.5C 603.427,444.973 604.094,443.973 605.5,443.5 Z"></path>
  </g>
  <g>
    <path style="opacity:1" fill="#717171" d="M 278.5,445.5 C 279.167,445.5 279.833,445.5 280.5,445.5C 279.833,448.167 279.167,448.167 278.5,445.5 Z"></path>
  </g>
  <g>
    <path style="opacity:0.29" fill="#b2b2b2" d="M 180.5,446.5 C 179.713,448.104 178.38,448.771 176.5,448.5C 177.514,447.326 178.847,446.66 180.5,446.5 Z"></path>
  </g>
  <g>
    <path style="opacity:0.522" fill="#707070" d="M 476.5,447.5 C 478.027,447.427 479.027,448.094 479.5,449.5C 477.973,449.573 476.973,448.906 476.5,447.5 Z"></path>
  </g>
  <g>
    <path style="opacity:0.435" fill="#7a7a7a" d="M 803.5,446.5 C 804.906,446.973 805.573,447.973 805.5,449.5C 804.094,449.027 803.427,448.027 803.5,446.5 Z"></path>
  </g>
  <g>
    <path style="opacity:0.09" fill="#a8a8a8" d="M 664.5,447.5 C 665.906,447.973 666.573,448.973 666.5,450.5C 665.094,450.027 664.427,449.027 664.5,447.5 Z"></path>
  </g>
  <g>
    <path style="opacity:0.037" fill="#b7b7b7" d="M 382.5,389.5 C 382.5,409.833 382.5,430.167 382.5,450.5C 395.87,450.778 409.203,450.445 422.5,449.5C 422.082,450.222 421.416,450.722 420.5,451C 407.504,451.5 394.504,451.667 381.5,451.5C 381.169,430.66 381.503,409.993 382.5,389.5 Z"></path>
  </g>
  <g>
    <path style="opacity:0.255" fill="#8c8c8c" d="M 479.5,449.5 C 481.027,449.427 482.027,450.094 482.5,451.5C 480.973,451.573 479.973,450.906 479.5,449.5 Z"></path>
  </g>
  <g>
    <path style="opacity:0.208" fill="#898989" d="M 613.5,447.5 C 613.371,449.216 613.038,450.883 612.5,452.5C 611.322,450.662 611.655,448.995 613.5,447.5 Z"></path>
  </g>
  <g>
    <path style="opacity:0.502" fill="#929292" d="M 121.5,450.5 C 121.5,451.833 120.833,452.5 119.5,452.5C 119.833,451.5 120.5,450.833 121.5,450.5 Z"></path>
  </g>
  <g>
    <path style="opacity:0.039" fill="#b5b5b5" d="M 501.5,450.5 C 509.063,452.138 516.73,452.805 524.5,452.5C 524.5,452.833 524.5,453.167 524.5,453.5C 519.156,453.666 513.823,453.499 508.5,453C 505.896,452.61 503.562,451.776 501.5,450.5 Z"></path>
  </g>
  <g>
    <path style="opacity:1" fill="#646464" d="M 531.5,451.5 C 529.562,453.163 527.228,453.829 524.5,453.5C 524.5,453.167 524.5,452.833 524.5,452.5C 526.861,452.326 529.194,451.993 531.5,451.5 Z"></path>
  </g>
  <g>
    <path style="opacity:0.008" fill="#b0b0b0" d="M 682.5,451.5 C 684.306,452.024 685.972,452.691 687.5,453.5C 685.219,453.923 683.552,453.256 682.5,451.5 Z"></path>
  </g>
  <g>
    <path style="opacity:0.043" fill="#a8a8a8" d="M 751.5,451.5 C 753.626,452.048 755.626,452.715 757.5,453.5C 754.918,453.975 752.918,453.308 751.5,451.5 Z"></path>
  </g>
  <g>
    <path style="opacity:0.616" fill="#8b8b8b" d="M 792.5,452.5 C 794.027,452.427 795.027,453.094 795.5,454.5C 793.973,454.573 792.973,453.906 792.5,452.5 Z"></path>
  </g>
  <g>
    <path style="opacity:0.145" fill="#a5a5a5" d="M 593.5,453.5 C 592.766,454.708 592.433,456.041 592.5,457.5C 591.402,456.399 591.235,455.066 592,453.5C 592.69,452.262 593.19,452.262 593.5,453.5 Z"></path>
  </g>
  <g>
    <path style="opacity:0.235" fill="#898989" d="M 795.5,454.5 C 797.027,454.427 798.027,455.094 798.5,456.5C 796.973,456.573 795.973,455.906 795.5,454.5 Z"></path>
  </g>
  <g>
    <path style="opacity:0.008" fill="#b8b8b8" d="M 182.5,455.5 C 180.485,456.924 178.152,457.59 175.5,457.5C 177.515,456.076 179.848,455.41 182.5,455.5 Z"></path>
  </g>
  <g>
    <path style="opacity:0.596" fill="#6c6c6c" d="M 492.5,455.5 C 495.152,455.41 497.485,456.076 499.5,457.5C 496.848,457.59 494.515,456.924 492.5,455.5 Z"></path>
  </g>
  <g>
    <path style="opacity:0.17" fill="#9f9f9f" d="M 114.5,453.5 C 114.5,454.833 114.5,456.167 114.5,457.5C 133.833,457.5 153.167,457.5 172.5,457.5C 153.007,458.497 133.34,458.83 113.5,458.5C 113.216,456.585 113.549,454.919 114.5,453.5 Z"></path>
  </g>
  <g>
    <path style="opacity:0.169" fill="#9c9c9c" d="M 360.5,453.5 C 359.766,454.708 359.433,456.041 359.5,457.5C 382.167,457.5 404.833,457.5 427.5,457.5C 404.673,458.498 381.673,458.831 358.5,458.5C 358.34,456.801 358.506,455.134 359,453.5C 359.69,452.262 360.19,452.262 360.5,453.5 Z"></path>
  </g>
  <g>
    <path style="opacity:0.169" fill="#959595" d="M 592.5,457.5 C 600.833,457.5 609.167,457.5 617.5,457.5C 617.473,455.801 616.806,454.467 615.5,453.5C 616.473,452.209 617.473,452.209 618.5,453.5C 619.747,455.006 619.747,456.506 618.5,458C 609.657,458.824 600.99,458.657 592.5,457.5 Z"></path>
  </g>
  <g>
    <path style="opacity:0.169" fill="#959595" d="M 661.5,453.5 C 660.766,454.708 660.433,456.041 660.5,457.5C 670.167,457.5 679.833,457.5 689.5,457.5C 689.567,456.041 689.234,454.708 688.5,453.5C 688.81,452.262 689.31,452.262 690,453.5C 690.494,455.134 690.66,456.801 690.5,458.5C 680.167,458.5 669.833,458.5 659.5,458.5C 659.34,456.801 659.506,455.134 660,453.5C 660.69,452.262 661.19,452.262 661.5,453.5 Z"></path>
  </g>
  <g>
    <path style="opacity:0.169" fill="#919191" d="M 734.5,452.5 C 732.786,453.738 730.786,454.405 728.5,454.5C 728.5,455.5 728.5,456.5 728.5,457.5C 738.833,457.5 749.167,457.5 759.5,457.5C 759.473,455.801 758.806,454.467 757.5,453.5C 758.397,452.402 759.23,452.402 760,453.5C 760.494,455.134 760.66,456.801 760.5,458.5C 749.5,458.5 738.5,458.5 727.5,458.5C 727.181,456.25 727.681,454.25 729,452.5C 730.626,452.854 732.459,452.854 734.5,452.5 Z"></path>
  </g>
  <g>
    <path style="opacity:0.292" fill="#8f8f8f" d="M 819.5,453.5 C 820.451,454.919 820.784,456.585 820.5,458.5C 814.491,458.666 808.491,458.499 802.5,458C 801.263,457.768 800.263,457.268 799.5,456.5C 806.131,457.331 812.798,457.664 819.5,457.5C 819.5,456.167 819.5,454.833 819.5,453.5 Z"></path>
  </g>
</svg>
