<svg viewBox="0 0 138 27" xmlns="http://www.w3.org/2000/svg" xml:space="preserve" style="fill-rule:evenodd;clip-rule:evenodd;stroke-linejoin:round;stroke-miterlimit:2">
    <path d="M30 12V7.6c.1-2.7 1.2-4.9 3.7-6a6.302 6.302 0 0 1 2.68-.599c3.08 0 5.73 2.259 6.22 5.299l.2 2c0 .1 0 .2-.2.2h-4c-.1 0-.2-.1-.2-.3 0-.7-.1-1.3-.5-2-.8-1.1-2.6-1-3.2.4-.3.5-.4 1-.4 1.6v11.6c0 .4 0 .8.2 1.2.4 1 1 1.4 2 1.4.8 0 1.4-.5 1.7-1.5.2-.4.2-.8.2-1.2 0-.2 0-.3.3-.3h3.9c.1 0 .2 0 .2.2 0 1.8-.4 3.4-1.5 4.9a5.804 5.804 0 0 1-4.2 2.3c-1.7.2-3.3-.1-4.7-1.3-1.3-1-2-2.5-2.3-4.1.071-3.134.038-6.269-.1-9.4Zm95.3 7.4h3.8c.2 0 .3 0 .3.3 0 .6 0 1.1.3 1.6.3.8.9 1.3 1.8 1.3.8 0 1.5-.3 1.9-1.2.6-1.3.5-2.7-.2-4-.5-.9-1.3-1.2-2.1-1.4h-.1c-1-.3-2-.6-2.8-1.1a6.604 6.604 0 0 1-3-5c-.3-1.7-.2-3.4.5-5 .9-2.3 2.6-3.6 5-3.8 1.5-.2 2.9 0 4.2.9 1.6 1 2.5 2.7 2.8 4.7l.2 1.5c0 .2 0 .3-.3.3h-3.8c-.2 0-.3 0-.3-.3 0-.5 0-1-.2-1.4-.3-1-1-1.5-1.8-1.5a2.006 2.006 0 0 0-2 1.4c-.2.8-.2 1.6 0 2.4.1 1 .7 1.6 1.6 2l1.3.5.6.2c2.9 1 4.5 3 4.9 6 .2 2 .1 3.8-.7 5.5-1 2-2.5 3.2-4.7 3.5-1.9.3-3.6-.1-5.2-1.4a6.902 6.902 0 0 1-2.1-4.1l-.2-1.6c0-.2.1-.3.3-.3Zm-2.6.2V1.7c0-.3 0-.3-.3-.3h-3.7c-.3 0-.4 0-.4.4v17.7c0 .5 0 1.1-.3 1.6-.3.8-.8 1.3-1.6 1.3-.9 0-1.5-.3-1.9-1.2-.3-.5-.3-1.1-.3-1.7V1.7c0-.3 0-.3-.4-.3h-3.6c-.3 0-.4 0-.4.4.075 6.5.141 13 .2 19.5.3 1.8 1 3.3 2.5 4.4a5.999 5.999 0 0 0 4 1.2c2-.1 3.5-.8 4.7-2.4a7.906 7.906 0 0 0 1.5-4.9ZM61 19.2V1.7c0-.3 0-.3.4-.3H65c.3 0 .4 0 .4.4v17.7c0 .8 0 1.5.5 2a1.901 1.901 0 0 0 3.2-.1 4 4 0 0 0 .4-1.9V1.4h4.1c.2 0 .3 0 .3.3v17.7c0 1.7-.3 3.4-1.3 4.8a5.904 5.904 0 0 1-4.8 2.7 6.002 6.002 0 0 1-4-1.1 6.804 6.804 0 0 1-2.7-4.6 10.966 10.966 0 0 1-.1-2Zm41.5-5.7-.5 1.6a8898.788 8898.788 0 0 1-3.2 11.2c0 .1 0 .2-.2.2s-.2 0-.2-.2l-3.7-12.5-.2-.9-.1-.2v13.5c0 .2 0 .3-.4.3h-3.4c-.2 0-.3 0-.3-.3V1.7c0-.2.1-.3.4-.3h3.5c.3 0 .4 0 .5.3l2.7 9.6 1.2 4 .1-.3 3.9-13.3c0-.2.1-.3.4-.3h3.5c.3 0 .3 0 .3.3v24.5c0 .3 0 .3-.3.3h-3.4c-.3 0-.3 0-.3-.3V12.7l-.3.7v.1ZM76.9 1.8v24.4c0 .2 0 .3.3.3h10.3c.2 0 .2 0 .2-.3v-3.6c0-.3 0-.3-.3-.3h-5.8c-.3 0-.4 0-.4-.3v-5.8c0-.3.1-.4.4-.4h4.8c.2 0 .3 0 .3-.3V12c0-.3-.1-.3-.4-.3h-4.7c-.3 0-.4 0-.4-.4V6c0-.3.1-.4.4-.4 1.9.011 3.8.011 5.7 0 .3 0 .4 0 .4-.3V1.8c0-.3 0-.4-.4-.4h-10c-.3 0-.4 0-.4.4Zm-64 11.9v-12c0-.2 0-.3-.4-.3H9c-.3 0-.4 0-.4.4v17.8a4 4 0 0 1-.4 1.9c-.6 1.1-2 1.3-2.9.3-.4-.5-.6-1-.8-1.7 0-.2 0-.3-.2-.3-1.399.11-2.799.21-4.2.3.043.332.076.666.1 1 .7 3.3 3.3 6 7 5.8 1.5-.1 2.9-.7 4-2a7.597 7.597 0 0 0 1.8-5.1v-6.1h-.1ZM58 8.5c0-.7 0-1.5-.2-2.2-.4-2-1.3-3.6-3.1-4.5a6.597 6.597 0 0 0-4-.7c-1.7.2-3.2 1-4.3 2.4A8.2 8.2 0 0 0 45 8.4V19l.1 2.1c.4 2 1.2 3.7 3 4.8 1.7 1.1 3.5 1.2 5.4.7.3 0 .4 0 .6.2.25.347.517.68.8 1 0 .2.1.2.3.1.795-.673 1.595-1.34 2.4-2l-.5-.6-.4-.6c-.1-.2-.1-.3 0-.4 1-1.4 1.3-3 1.3-4.7V8.5Zm-4.3 11.9-.2-.3-.4-.5c-.86.577-1.727 1.144-2.6 1.7-.2.1-.2.2 0 .4.214.291.414.591.6.9-.7-.2-1.2-.6-1.4-1.2-.3-.6-.3-1.3-.3-2 .086-4.134.186-8.267.3-12.4.3-1 1-1.5 2-1.5s1.6.5 1.9 1.5l.2 1.3v12.1h-.1Zm-26.2.9 1 5.1v.1h-4.1c-.1 0-.2 0-.2-.2-.255-1.136-.521-2.27-.8-3.4-1.533.074-3.066.141-4.6.2l-.3 1.9-.2 1.2c0 .2 0 .3-.3.3h-3.6c-.3 0-.3 0-.3-.3l2.5-12 .8-4.2.5-2.4 1.2-6c0-.2.2-.2.4-.2h3.8c.2 0 .3 0 .3.3l3 14.9v.4l1 4.3h-.1Zm-4.8-2.7c.2 0 .2 0 .2-.2l-.1-.5v-.3l-.7-4-.9-3.8-.7 4c-.23 1.6-.464 3.2-.7 4.8h3-.1Z" style="fill:#2e2e2e;fill-rule:nonzero" transform="translate(-.1 -1.001)"/>
</svg>
