<svg xmlns="http://www.w3.org/2000/svg" width="630" height="133.95" viewBox="0 0 630 133.95"><title>Loro Piana logo - Brandlogos.net</title><path d="M544.46,543.17a9.45,9.45,0,0,0-4.64,2.65,4.58,4.58,0,0,0-1,1.33,10.59,10.59,0,0,0-1,4.64l-1.66,1.66a57,57,0,0,1-10.61,7.63l-2,1a8.44,8.44,0,0,1-8-.33c-.33-.33-.66-.33-.66-.66a3.52,3.52,0,0,1-.33-2.65,21.63,21.63,0,0,1,3.32-5l1-1a56.52,56.52,0,0,1,6.3-6.3,38.46,38.46,0,0,1,11.94-7.63c.66-.33,1.33-.33,2-.66a6.46,6.46,0,0,1,4.31.33c.33,0,.33.33.66.33a3.77,3.77,0,0,1,1,2.65C544.8,541.84,545.13,542.83,544.46,543.17Zm-78.25,8.29C453,565,444,563.06,442.68,560.74c-1.66-4,7.63-10.94,10.94-14.92,8.62-9.61,15.25-9.95,17.57-8.62a3.91,3.91,0,0,1,1,5.31,9.56,9.56,0,0,0-6,9Zm-100.46,11.6a49.17,49.17,0,0,1-15.58-.33,5.07,5.07,0,0,1-2.32-1.66v-.33c0-.66.66-1,1.33-1.33,8-3,17.57-1.33,25.2,1.33h.33A19.92,19.92,0,0,1,365.76,563.06Zm130.63-99.47c5,4-.66,11.6-3.32,15.58a135.3,135.3,0,0,1-53.38,33.49C443.34,504.37,480.14,455,496.39,463.59ZM570,525.26c-1.66,2-20.89,25.2-23.21,22.88-1-1.66,4.64-9.95-3.65-12.93-19.23-3.65-30.83,14.92-34.48,18.24-3.65,3.65-18.24,10.61-21.88,9.95C482.13,561.73,504,548.8,502,540.51c-1.66-4-2.65-2.32-9-4.31,1.33-1.66,6.63-7.29,2.65-8.62-4.31-1.33-5.64,7-6,8.62-.66.66-14.26,13.26-15.25,10.94,0-.33,5-12.27-7-13.59-13.59-2-25.2,14.26-25.86,15.25-23.21,15.25-53,9.28-53,9,2.65-1.66,32.82-18.57,46.75-40.45a168,168,0,0,0,35.14-15.91c.66,0,44.1-26.52,27.52-40.12-7.29-4-15.91-.33-22.21,3-23.21,13.59-48.07,49.73-50.4,52.05-12.27,3-27.19,1.66-35.14-9.28-10.61-24.87,33.82-49.73,66.64-46.09.33-.33.33,0,.66-.33v-.33c-37.47-5.64-63.33,12.93-71.28,26.52A20.95,20.95,0,0,0,389,511.67c11.27,12.27,28.84,9.61,33.49,9.61a116,116,0,0,1-39.79,36.8c-2.65-.66-36.47-6.3-38.13,3.32,1,8.29,27.19,5,36.14,1.66,13.59,3.65,39.79,3.65,57.69-7.29l.33.33c-.33,1.66-1,7,2.65,9,6.63,3,14.59,1.33,27.19-10.94.66-.66,1.33-.33,2.65-.66,8-2,17.24-12.6,20.22-13.93a35.81,35.81,0,0,1,6.3,1c4.64,1.66-19.89,13.26-15.58,23.21,4.64,8.29,25.2-3.32,27.52-6.63,0,0-1,9.95,9,9.61a40.64,40.64,0,0,0,21.55-11.94c12.27,1,29.51-25.86,30.5-28.18C570.66,525.26,570.66,524.93,570,525.26Z" transform="translate(-197 -445.03)" style="fill:#9d5248"/><path d="M768.59,562.73c-5.63-2.32,5-12.27,6.3-13.59,13.6-13.93,18.9-10.94,19.23-9.95,1.33,1.66-4,9-5,9.95C777.55,562.4,772.57,564.05,768.59,562.73Zm-77.91-9.28c-2.65,3-11.61,10.61-16.25,9.28-.66-.33-6-2.65,9.29-16.91,3.31-3,17.9-12.93,16.91-4A144.29,144.29,0,0,1,690.68,553.44Zm136.27-18.9c-2-1.33-14.26,14.92-20.23,18.9-4,3-14.92,10.28-17.9,8-2-1.66,17.24-19.56,20.56-25.2h-8.62a10.31,10.31,0,0,1-3,2.32c-5.3-9.61-25.2,4.31-28.18,7.63-2,2-5.64,7.29-6,7.63-3,3-14.26,11.6-17.24,9-1.33-1.33,11.27-12.6,13.59-15.58a8.49,8.49,0,0,0,.33-10.61c-8.29-4-11.6,2.65-17.9,5.64-.33-1,0-10.28-10.61-6.3-10.28,4.64-23.87,23.21-30.5,25.53a10.61,10.61,0,0,1-6.63.66c-2.65-1.33,11.94-12.6,20.56-25.2h-8.62c-.67.66-2,2.32-3,2.32-1.66-3-5.3-5.64-17.57,0-9.62,5-12.6,10.28-18.24,14.92-7.29,6.63-17.57,10.28-19.56,8.29s22.55-24.87,23.21-25.53h-9.29c-.66.66-20.89,19.23-38.46,28.51,0,3.32,17.91-7.63,20.89-9.61,0,0-3,9,2.65,10.28,8.62,1,20.89-9,21.22-8.29a6.65,6.65,0,0,0,1,5.1,6.65,6.65,0,0,0,4.33,2.86,20.15,20.15,0,0,0,13.93-3.65c1,.33,1,5.64,9.28,4a37.87,37.87,0,0,0,17.91-12.93c2-2,19.56-20.22,22.54-14.92.67,2-1,4-3.31,7-4,4.64-11.28,10.94-19.56,19.89h9.95c1.33-1.33,21.22-21.88,22.55-23.21,6.63-6.63,10.61-4.31,10.61-3,0,2-2.32,5-11.94,14.92-.33.33-9.61,8.29-2.65,11.94,6,.66,11.94-1.66,19.23-7.29a6.94,6.94,0,0,0,5.64,7,20.15,20.15,0,0,0,13.93-3.65c1.32.66,1.65,5.3,9.28,4,7.63-2,16.25-9.28,19.56-11.94C815,549.8,827.94,535.54,826.95,534.55Z" transform="translate(-197 -445.03)" style="fill:#9d5248"/><path d="M691.67,473.21c14.59,12.93,8.62,24.53,7.63,27.52-9,17.9-22.22,14.26-24.2,9.28-4.64-15.91,17.9-22.55,18.23-19.23-6.3-.66-22.55,14.59-12.93,20.22,6.63,1.66,19.23-14.92,14.59-28.84a19.34,19.34,0,0,0-5.64-7c-8.62,8.29-20.89,32.49-20.89,32.49-3,5.3-6.3,10.61-9.61,15.58A132.64,132.64,0,0,1,638,545.82a91.31,91.31,0,0,1-27.85,15.58c-21.55,6-26.19-4-28.18-8.29-2.65-9.61,5.64-13.59,7.29-11.27,4,7-3.65,11.27-4,11.6a12.53,12.53,0,0,0,12.27,7c26.53-1,47.74-33.15,61.34-51.72a371,371,0,0,1,28.51-35.81c-14.25-8.62-34.48-5-48.07,2.65-37.8,21.22-41.78,41.11-34.81,47.41,12.93,8,38.13-4.31,51.39-22.55,4.64-5.64,12.93-18.24,14.26-27.19,1,10.94-10.28,26.86-10.61,27.19-15.92,23.54-30.84,26.86-40.78,28.18-11.28,1.66-30.5-7.29-16.25-28.18s34.48-30.83,56.69-34.48a45.93,45.93,0,0,1,30.5,5s23.87-21.55,32.82-20.89C711.24,454.64,690.68,470.89,691.67,473.21Z" transform="translate(-197 -445.03)" style="fill:#9d5248"/><path d="M677.08,521c-6.3.66-9.95,10.28-2.65,10.28C682.06,530.9,683.05,520.29,677.08,521Z" transform="translate(-197 -445.03)" style="fill:#9d5248"/><path d="M281.54,475.53l7.29-4.64,7,4.64-2.32-8,6.3-5h-8l-3.32-8-3,8h-8l6.3,5Z" transform="translate(-197 -445.03)" style="fill:#9d5248"/><path d="M245.41,515l7.29-4.64,7,4.64-2.32-8,6.3-5h-8l-3.32-8-3,8h-8l6.3,5Z" transform="translate(-197 -445.03)" style="fill:#9d5248"/><path d="M312.71,445H228.5v1.66s.66.66,1,.66a6,6,0,0,1,3.32,4.64v63.33a16.14,16.14,0,0,0,.33,4,11.15,11.15,0,0,0,4.31,6.63,11,11,0,0,0,7,2.32H265.3a6.3,6.3,0,0,1,5.3,3.32l.33.66.33-.33a5.81,5.81,0,0,1,5-3.32h20.89a11,11,0,0,0,7-2.32,9.57,9.57,0,0,0,4.31-6.3,16.16,16.16,0,0,0,.33-4V453a5.49,5.49,0,0,1,3.32-4.31c.33,0,1-1,1-1Zm-74.27,15.25c-.33-.66.33-1.33,1-1.66a2,2,0,0,0,1.33-.33c-.33-1-.33-2.32.66-2.65h1a1.46,1.46,0,0,1,.33-1.66c.66-.33,2-.33,2-1.66.33-.33.66-.66,1-.66,1-.33,2,1,2-.66,1-1.66,3.32,0,4.64-.66,1,.33,1,1.33,1.66,2a3.06,3.06,0,0,1,3-1c.66.33,1.33.33,1.66,1.33,0,.33,0,.33.33.66.66-.33,1-.66,1.66-.33A2.22,2.22,0,0,1,262,455.3c.66,0,1-.33,1.66.33-.33,0-1.33.66-.33,1,.33,0,.33.66.33.66.33.33,1,.33,1,1,.33,1-.66,1.66,0,2.65,0,.33-.33.66,0,1,.33,0,.66.33,1.33.33a2.48,2.48,0,0,1,.33,1.66c.33,1.33-2.32,1-1,2.32,0,.66-.33,1-1,1.33-.33.33-.66-.33-1,0a2.22,2.22,0,0,1-1.33,2.32c-.66,0-1.66.33-2.32,0l-1-1.33a2.58,2.58,0,0,1-2.65.66c-1.66-.66,0-3-1.66-3.65-1.33-.33-2.65,1-3.32,2h-.33a36.26,36.26,0,0,1-2.65-5c-.33,0-.33,0-.33.33a16,16,0,0,0,2.65,5.3c.33.33.33.66,1,.33a4.6,4.6,0,0,1,2.65-2.32,5.64,5.64,0,0,1,.33,2.32,5.94,5.94,0,0,0-1.33,4.64v3.32a16.39,16.39,0,0,0,1.66,8c-1,.66-2.32,0-3-.33-1,0-1.33.66-2.32.66-.33-.33-.66,0-1-.33,2.32-2,1.33-5.3,1.66-8.29a9.18,9.18,0,0,1-.33-3,6.12,6.12,0,0,0-1.66-5.3,16.64,16.64,0,0,1-1.66-4.31c0-.33-.33-.33-.66-.33-.33.33-.33,1.33-1,1.66-1,.66-1.66-1.33-2.65,0-.33,0-1-.33-1-.66a.33.33,0,0,0-.33-.33c-.33,0-.33,0-.33.33a1.82,1.82,0,0,0,1,1.66h1.33c.33-1,1,0,1.33,0h2a13,13,0,0,0,2.65,4.64c0,.33,0,1-.33,1-1-1-1,.66-1.66.66s-1,0-1.33-.33l-.66-1c-.66,0-1.33.33-1.66-.33v-1a2.48,2.48,0,0,1-1.66-.33c-.66-.33,0-2-1.33-2a2.72,2.72,0,0,1-1.33-2c0-.66.33-1.66-.66-2a1.87,1.87,0,0,1,.33-3Zm32.82,68c-3.32-2-4.64-3.32-7.63-3H242.42a9.24,9.24,0,0,1-7-6l-.33-.33-.33-2.32V488.13h36.47Zm1.66-17.9a23.22,23.22,0,0,1,1-4.64,14.39,14.39,0,0,1,.33-1.66,4.45,4.45,0,0,1-.66-3,3.55,3.55,0,0,1,.66-2,9.92,9.92,0,0,1,1.33-2.65c1-2,1.33-3.65,2.32-5.64.66-1,2.65-.66,3.65-.33.33,0,.66.66.66.66.66,0,1,1,1,2a5.46,5.46,0,0,1-.66,3.32v1.66c-.66,0-1.66,0-2-1-.66-.33-1.66,0-2.32-.66-2.65,0-3,2.32-3.65,4.31,0,.33-.33.66-.33,1-.33.33,0,1,0,1.33,1,.33.33,1.66.33,2.32-.33,2-.33,4-1.66,5C272.93,511,273.26,510.34,272.93,510.34Zm11.6-7.63a1.22,1.22,0,0,1-1-.33c.33-.33,0-1,0-1.33s0-.33.33-.33c0-.66,0-1.66,1.33-1.33a1.48,1.48,0,0,1,0,1.66C284.86,501.72,284.86,502.39,284.53,502.72Zm-.33,3h-.33a3.15,3.15,0,0,1,.66-2.32,2.72,2.72,0,0,1-.33,2.32Zm-1-1c0,.33-.33.66-.33,1s0,.33-.33.66h-.33V506c0-1,0-2,.66-2.32S283.2,504.37,283.2,504.71Zm-6.63-2.32c-.33-.33,0-.66,0-1.33v-.66l1-2.32c.33-.33.66-.66,1-.33s0,.66,0,1.33l-.66,2.32-.33,1C277.24,502.39,276.57,502.72,276.57,502.39Zm.33,2.65v.66a7,7,0,0,1-1.33,3.65h-.33a14.1,14.1,0,0,1,.66-3.65c.33-.66.33-1.33.66-2,0-.33.33,0,.66,0C277.24,504,276.9,504.71,276.9,505Zm.33,2.32.33-1.33.33-2a1.22,1.22,0,0,1,1-.33c0,.66-.33,1.33-.33,2a6.15,6.15,0,0,0-.66,2.32c-.33,0-.33.33-.66,0Zm1.66-5v-1.33a9.69,9.69,0,0,1,.66-3,1.22,1.22,0,0,1,1,.33c0,1-.33,1.66-.33,2.65,0,.66-.33,1-.33,1.33Q278.89,502.88,278.89,502.39Zm1,3.32a4.71,4.71,0,0,0,.66-2l.33-.33c.33,0,.66,0,.66.33,0,.66-.33,1.33-.33,2a2.53,2.53,0,0,1-.66,1.66h-.33C279.56,507,279.56,506.36,279.89,505.7Zm1.33-3.32v-2.32l.33-1a2,2,0,0,1,1.33.33,2.48,2.48,0,0,1-.33,1.66c0,.33-.33,1-.33,1.33a.62.62,0,0,1-1,0Zm0,10.94a7,7,0,0,1-2,2.65h-.33a7.22,7.22,0,0,1,1.66-2.65C280.88,513,281.21,513,281.21,513.33Zm1.33,1a.71.71,0,0,1-.66.66h-.33a1.95,1.95,0,0,1,.66-1.66l.33-.33s.33.33,0,.33C282.87,513.66,282.54,514,282.54,514.32Zm.33-2.32c-.33,0-.66.33-1,0,0-1,1-1.66,1.66-2.32.66,0,1.33-.66,1.66,0h.33c0-.33-.33-.66-.66-1a4.83,4.83,0,0,0-4.31,2.32l-.66,2.32L276.57,518c-.33,1,1,.66,1.33,1.33a2.58,2.58,0,0,0-2.65.66c-.33-.33-.33-1.33-1-1.33.33-.33,1,0,1.33-.33,1.33-1.66,2.32-3.32,3.65-5a56.34,56.34,0,0,1,3.32-4.64,3.06,3.06,0,0,1,3-1c.66,0,1,.66,1.33,1a5.64,5.64,0,0,1-.66,4.64c0,.33-.33.33-.33.66v-1.33c-.33-.66-.66-.66-1.33-.33C283.87,512.33,283.53,512,282.87,512Zm4.31-17.9c.66-.33,1.33,0,2-.33a4.2,4.2,0,0,0,2,.33c0,.66-1.33.33-1.33,1.33v2a.46.46,0,0,0-.33-.14.47.47,0,0,0-.18,0,.46.46,0,0,0-.15.1c-.33,0,0,.33-.33.33s-.66-.66-1-.33c0,0-.33.33-.33,0v-1c-.33-.66-1.33-.66-2-.66C286.19,495.09,286.85,494.76,287.18,494.1Zm-.66-3.32c.33,0,.33-.33,0,0a.46.46,0,0,1,.66,0h.66c.33-.33,0-1.66,1-1.33.33.33,0,1.33.66,1.33h.33c.33,0,1-.66,1.33,0,0,.33-.33.66-.66,1.33a13.43,13.43,0,0,0-3.65,0C286.85,491.78,286.52,491.11,286.52,490.78Zm-2.32,22.55c0-.33.33-.33.66-.33v.33c0,.33-.33.66-.33,1a.46.46,0,0,1-.66,0,1.22,1.22,0,0,1,.33-1Zm10.28,5.31s-1.66-1.33-2.65-2.32c-.33-.33-.33,0-.33.33a17.85,17.85,0,0,0,3,4l.33.33c-.33,0-.66,0-.66-.33a4,4,0,0,1-1.66-1.66c-.66-.66-.66-2-1.66-2.32l-.33.33a13.36,13.36,0,0,1,0,3.65,1.22,1.22,0,0,1-.33,1c-.33.33-.66-.33-1-.66v-.33c0-1.33-.33-2.65-.33-3.65,0-.33-.33,0-.66,0a14.92,14.92,0,0,1-2,4,7.26,7.26,0,0,1-1.66,1c0-.33.33-.66.66-1a19.8,19.8,0,0,0,2-3.65c0-.33,0-.66-.33-.66-.66.33-1,1.33-1.66,1.66a1.72,1.72,0,0,1-1.33.66c.33-1,1-1.66,1.33-2.65a13.44,13.44,0,0,1,1.66-3c1-1.66,1.66-3.32.33-5a8.31,8.31,0,0,1-1.33-2.32,11,11,0,0,1,0-4.64c0-.33.33-1,.33-1.33.33-.66.66-2,2-1.66.33.33.66.66,1,.33,0-.33.33-.33.66-.33.33.33.33.66.66.66,0-.33-.33,0,0,0,.66.66.33,1.66.33,2.65,0,1.33.66,2.65.66,3.65,0,.33.33.66,0,1-.33,1-.66,2.32-1,3.32a6.66,6.66,0,0,0,1.33,4.31s-.33,0,0,.33Zm-.66-5.31V514a.71.71,0,0,1-.66-.66v-1C293.81,512.33,293.81,513,293.81,513.33Zm1.66,1.33a2.51,2.51,0,0,1-.66-1.33v-1l.13,0a.33.33,0,0,1,.11.07.33.33,0,0,1,.1.23v.66C295.47,514,295.8,514.32,295.47,514.65Zm2.65,1c-.66.33-1-.66-1.33-1a2.51,2.51,0,0,0-.66-1.33c0-.33,0-.66.33-.66l.66.66a7.24,7.24,0,0,0,1,1.66Zm3.32,3.32a2.24,2.24,0,0,0-2-1.33c.33-.33.66-1,.33-1.33l-2-3-2-3.32c-1-.66-1.66-1.66-2.65-1-.33,0-.33.33-.33.66.33.33,1,0,1.33,0a2.24,2.24,0,0,1,1.33,2,1.51,1.51,0,0,0-1.66,0c-.66-.33-1.33.66-1.66-.33,0-1-.66-2.32,0-3a4.46,4.46,0,0,1,3-.66c.66.33,1,1,1.66,1.66l2.32,4,2,3.32c.33.66,1.33.33,1.66,1C302.1,517.64,301.77,518.3,301.44,519Zm-1-13.92c0,.33.33.66.33,1a6.25,6.25,0,0,1,.66,2.65c0,.33-.33.33-.33,0a6.67,6.67,0,0,1-1.33-2.65,16.15,16.15,0,0,1-1-2.32c0-.33,0-.66.33-.66C299.78,503,300.11,504,300.44,505Zm-1-7,.33-.33c1.33.33,1.33,2,2,3.32v.33a.71.71,0,0,1-.66.66c-.33,0-.33,0-.66-.33v-.33C300.44,500.06,299.45,499.07,299.45,498.07Zm-.33,4h-.66a1.22,1.22,0,0,1-.33-1c-.33-.66-.33-1.33-.66-2,0-.33,0-.33.33-.66,1,0,1,1.33,1.66,2.32v.66A1,1,0,0,1,299.12,502.05Zm-.66,2.65c0,.33.33.66.33,1s.33,1,.33,1.33c-.66,0-.66-.66-1-1v-.33c-.33-1-1-1.66-.66-2.32C297.79,503.71,298.12,504.37,298.45,504.71Zm-1.66-2.32c-1,.33-1.33-.33-1.33-1.33,0-.33,0-1-.33-1,0-.33.33-1,.66-1,1.33,0,1,1.33,1.33,2a.33.33,0,0,0,.33.33C297.46,501.72,297.46,502.39,296.8,502.39Zm.33,3.65c0,.33-.33,0-.33,0a4.71,4.71,0,0,1-.66-2C296.8,504,297.13,505,297.13,506Zm-1.66-1.66c0,.33.33.66.33,1.33a4.7,4.7,0,0,1-.66-2C295.14,503.38,295.47,504,295.47,504.37Zm-1-1.33c-1,0-1-1-1-2a1.22,1.22,0,0,0-.33-1c0-.33,0-.33.33-.66.66-.33,1,.33,1,.66s0,.66.33.66C294.81,501.72,295.14,502.72,294.48,503Zm-1,.33c.66,0,.66.66,1,1,0,.33.33,1,0,1.33V506c-.33.33-.33,0-.66-.33,0-.33,0-.33-.33-.33C293.48,504.71,293.15,504,293.48,503.38Zm9.28,5.3a11.78,11.78,0,0,1-1.33-3c-.33-.66-.66-1.66-1-2.32.33,0,0-.33.33-.66a.71.71,0,0,1,.66.66,6.14,6.14,0,0,1,.66,2.32,3.38,3.38,0,0,1,.66,3C303.1,509,303.1,508.68,302.76,508.68Zm.66-3a4.79,4.79,0,0,1-.66-2.32c-.33-1,1-1.33.66-2.32a9,9,0,0,0-2.32-4.31c-1.33-.66-1.66,1-3,.66-.66,1.33-2.32.33-3.32,1.33v-2.32a8.22,8.22,0,0,1,0-5.64l1-.66a3.52,3.52,0,0,1,4,.66,29.4,29.4,0,0,1,2.65,5.64c.33.33.33.66.66,1.33a11.75,11.75,0,0,1,1,3.65v1.33c-.66,1,.33,2,.66,2.65V506a17.49,17.49,0,0,1,1,4A7.92,7.92,0,0,1,303.43,505.7Zm4.31-51.39v33.82H271.27V448.34h36.8C306.41,448.34,307.74,452.32,307.74,454.31Z" transform="translate(-197 -445.03)" style="fill:#9d5248"/><path d="M288.18,495.42l.33-.33c0-.33-.33-.33-.66-.33a.33.33,0,0,0-.33.33C287.51,495.42,287.85,495.42,288.18,495.42Z" transform="translate(-197 -445.03)" style="fill:#9d5248"/><path d="M256.35,456s-.33-.33-.33,0a1,1,0,0,0,0,1.33A2,2,0,0,1,256.35,456Z" transform="translate(-197 -445.03)" style="fill:#9d5248"/><path d="M258,455.64c.33-.33.33-.66.33-1.33a.71.71,0,0,0-.66-.66c-.33.33.33,1,0,1.33-.33.66-.66.66-1,1C257,456.3,257.67,455.64,258,455.64Z" transform="translate(-197 -445.03)" style="fill:#9d5248"/><path d="M260.33,461.94c1,1.33,2.32-.66,3.65,0,0-.33-.33-.33-.66-.33-.66-.66-1.33.33-2,0-.33,0-.33-.33-.66-.66a4.11,4.11,0,0,0-1,.66c-.33.33-1,.33-1.33.66C259,462.93,259.66,462.27,260.33,461.94Z" transform="translate(-197 -445.03)" style="fill:#9d5248"/><path d="M244.08,459.61c.66,0,1.66.33,2.32-.33s1,.66,2,.33c1.33,0,.66-1.66,2-1.33A2.2,2.2,0,0,0,252,457c-.33-1.33.66-1.66.66-2.65,0-.33-.33-1-1-.66V454c.33.33,0,1,0,1.33-1,.33-.33,1.33-.66,2-.33,1.66-2.32,0-2.32,1.33-.33.33-.66,1-1.33.66-1-1.33-1.33.66-2.65,0-.33,0-.66-.33-1-.66s0-1.33-.66-1c-.33.33-.33.33-.33.66C243.09,459,243.42,459.61,244.08,459.61Z" transform="translate(-197 -445.03)" style="fill:#9d5248"/><path d="M254,463.93c0-1.66,2-.66,2.65-2.32a2,2,0,0,0,.33-1.33c-.33-1,.33-1.66.33-2.65,0-.33-.33-.66-1-.33a2.51,2.51,0,0,1,.33,1.33c-1,1,.33,2.32-.66,3.32-.66.66-2.32,0-2.32,1.33-.33.33-.33,1-1,1A2,2,0,0,0,254,463.93Z" transform="translate(-197 -445.03)" style="fill:#9d5248"/><path d="M333.93,511.67a11.12,11.12,0,0,1,10.28-.33c-.33-2-1.33-4.64-4.64-4.64a9.14,9.14,0,0,0,0-7.29c-1,1-1,4-2,4.64-6.3,3-1-8-1-9.28a7.46,7.46,0,0,0-1.66-7.29c-.33.66-.33,3.32-1.66,4.31-2.32-.33-.66-8-2.32-8.62.33,2-1,2.65-1.33,4a5.64,5.64,0,0,1-1-5.64,15.58,15.58,0,0,1,2-3c-2-.66-3.65.66-5.64,1.33a7.75,7.75,0,0,0-2.32-5,3.78,3.78,0,0,1-2,4,6.49,6.49,0,0,1-1.66-6.3,2.35,2.35,0,0,0-1.66,3l-.66-.33c-1,9.61,5.64,13.59,5,14.59a19.49,19.49,0,0,0-6,1.33c0,.33,7.29,3.65,9.95,8.29,3.65,5.64.66,8-.66,8.29-4,.33-3.32-4.31,0-2.65-1.66-4.31-6-4.64-6.3-3a2.88,2.88,0,0,1,0-4.31c-3.32.33-3.32,4-3.65,5a4.43,4.43,0,0,0-5,2.65c3.32-2.32,17.24,8.29,8.62,13.59-3.32-1,0-3.65-.33-4-4.31.33-3,4.64-4.64,4a16.16,16.16,0,0,1-3.65-1.33,61.14,61.14,0,0,0,3.32,5.3c-1.33,1.33-3,4.31-1.66,5.64-.33-1.33,4-4,3.65.66-.66,3.32-7.63,4-5.3-2.65-2,.33-3.32,2.32-4.31,4-1,0-3-1.66-3.65-1.66,0,.33,4.64,6.3,0,11.27a5,5,0,0,0-4-3.32c-3.65,0-4,1.66-4,1.66,1-.33,2.32-.66,2.65,0,1.33,4.31-2,4.64-5,3.32,0,0-2.65-1-2.32-.33,2.65,1.66,1,7.29-3,2.32a14.54,14.54,0,0,0-3,8.29,58.75,58.75,0,0,1-11.27,10.94c-1.33-2.65,2-3.65,3-3.65-.33-1.66-3-1-3-1,0-.66,2-2.65,3-2-1.33-1.66-4-.66-4.31-.66.33-2.32,3.32-5,4.31-6a1.53,1.53,0,0,1,1,2c1.33,0,1.33-2,1.33-2a3,3,0,0,0,2.32-1c6.63-6.63,6.3-9,6-9.95a4,4,0,0,0-2.32-2.32c-3-.33-8.29,5-9.28,9.95-.66,0-1.66.33-1.66,1.33.33,0,1.33-.33,1.66.33,0,0-2.65,3-3.65,4a24.19,24.19,0,0,1-.33-6.63c.33-.33,1,1,1.33,1,1,0,.33-2,.33-2.65.66-1,1.66-3,1.66-3,1.66-8.29-3.32-9-4-9s-6.3.33-4,9c0,0,1,2,1.66,3,0,.66-1,2.65.33,2.65.33,0,1-1.33,1.33-1a24.19,24.19,0,0,1-.33,6.63,30.21,30.21,0,0,1-3.65-4c.33-.66,1-.33,1.66-.33-.33-1.33-1-1.33-1.66-1.33-1-5.3-6.3-10.61-9.28-9.95a3.28,3.28,0,0,0-2.32,2.32c-.33.66-.66,3.32,6,9.95.66.33,1.66.66,2.32,1,0,0,0,2,1.33,2-.66-1.66.33-2,1-2a11.68,11.68,0,0,1,4.31,6,4.4,4.4,0,0,0-4.31.66c1-.66,3,1.33,3,2,0,0-2.32-.66-3,1,1.33,0,4.31,1,3,3.65a70.19,70.19,0,0,1-11.27-10.94,16.07,16.07,0,0,0-3-8.29c-3.65,5-5.3-.66-3-2.32.66-1-2.32.33-2.32.33-2.65,1.33-6,1-5-3.32.33-.66,2-.33,2.65,0,0,0-.33-1.66-4-1.66a4.67,4.67,0,0,0-4,3.32c-4.31-5,0-10.94,0-11.27-.33,0-2.65,1.33-3.65,1.66a6.47,6.47,0,0,0-4.31-4c2,7-5,6-5.3,2.65-.33-4.64,4-2,3.65-.66,1.33-1.33-.33-4.31-1.66-5.64.66-1,3.32-5.3,3.32-5.3a11.87,11.87,0,0,1-3.65,1.33,3.19,3.19,0,0,0-2.65-4.31c-.66.33,2.65,3-.33,4-8.62-5.3,5.3-15.91,8.62-13.59a4.43,4.43,0,0,0-5-2.65c-.66-1-.66-4.31-4-4.64a3.2,3.2,0,0,1,0,4.31c-.33-1.33-4.64-1.33-6.3,3,3.32-1.66,4,3,0,2.65-1.33-.33-4.31-2.65-.66-8.29,2.65-4.64,9.95-8,9.95-8.29a19.49,19.49,0,0,0-6-1.33c-.33-1,6.3-5,5.3-14.59l-.66.33a2.35,2.35,0,0,0-1.66-3c0,.66.66,4.64-1.66,6.3a3.38,3.38,0,0,1-2-4,8.73,8.73,0,0,0-2.32,5c-1.66-.66-3.32-2-5.64-1.33.66,1,1.66,1.66,2,3a5.64,5.64,0,0,1-1,5.64c-.33-1.33-1.33-1.66-1.33-4-1.66.66.33,8.29-2.32,8.62a7.09,7.09,0,0,1-1.66-4.31,8.85,8.85,0,0,0-1.66,7.29c.33,1.33,5.3,12.27-1,9.28-1-1-1-3.65-2-4.64a9.13,9.13,0,0,0,0,7.29,5.22,5.22,0,0,0-4.64,4.64,10.24,10.24,0,0,1,10.28.33c.66.33,6,5.64,0,7.29-2,0-3.32-3-3.32-3a8.62,8.62,0,0,0,6,9.95c1.33,1,2.65,2.32,2.32,4-1.33,2.65-3-2-3-2a5.72,5.72,0,0,0-.33,5.64s-4,2.65,0,7.63c6.63-13.59,15.25-5,13.26-2.32-1,1.66-3.32,1.33-5,1.33a4.48,4.48,0,0,0,1.66,3,5.39,5.39,0,0,0-1,5,8.23,8.23,0,0,1,9.61-3.65c.66.33,3.65,2.32-.66,4.31a4.71,4.71,0,0,0-.66,2c4.31-3,13.26-2.32,15.25.33,1,3.32-2.32,3.32-3,4a4.68,4.68,0,0,0,6,1c.66,1-.33,2-.33,3a5.34,5.34,0,0,0,4.31-2,8.84,8.84,0,0,0,6.63,3c.33-.66-.33-1.33,0-2,2-.66,7.63,6,9.61,9.95a2.32,2.32,0,0,0-2.65,3c2.65-2.65,3.65,1,4.64,2,1,1.33-1.33.66-1.66,1.66a4.6,4.6,0,0,1,2.65,4.31h8.29a4.6,4.6,0,0,1,2.65-4.31c0-1.33-2.32-.33-1.66-1.66,1-1,2-4.64,4.64-2a2.4,2.4,0,0,0-2.65-3c1.66-4,7.63-10.61,9.61-9.95.33.66-.33,1.33,0,2a10.22,10.22,0,0,0,6.63-3,5.34,5.34,0,0,0,4.31,2c0-1-1-2-.33-3,1.66.66,4.31,1.66,6-1-.66-.33-4-.66-3-4,2-3,10.61-3.32,15.25-.33a2.44,2.44,0,0,0-.66-2c-4.31-2-1.66-4-.66-4.31a8.23,8.23,0,0,1,9.61,3.65,6.24,6.24,0,0,0-1-5,3.11,3.11,0,0,0,1.66-3c-1.66.33-4.31.33-5-1.33-2-3,6.63-11.27,13.26,2.32,4-5,0-7.63,0-7.63a5.67,5.67,0,0,0-.33-5.64s-1.66,4.64-3,2c-.33-1.66,1-3,2.32-4a8.49,8.49,0,0,0,6-9.95s-1.33,3.32-3.32,3C328,517.31,333.27,512,333.93,511.67Z" transform="translate(-197 -445.03)" style="fill:#9d5248"/></svg>